<svg width="1444" height="436" viewBox="0 0 1444 436" fill="none" xmlns="http://www.w3.org/2000/svg">
<g clip-path="url(#clip0_102_391)">
<path d="M1360 0.500679H83.3734C37.3334 0.500679 0 37.8341 0 83.8874V351.234C0 397.287 37.3334 434.607 83.3734 434.607H1360C1406.05 434.607 1443.37 397.287 1443.37 351.234V83.8874C1443.37 37.8341 1406.05 0.500679 1360 0.500679Z" fill="white"/>
<path d="M332.803 233.888C325.856 198.581 356.549 179.741 358.789 178.408C354.083 172.128 348.616 167.394 343.096 163.954C324.749 152.514 302.403 151.448 289.109 157.301C288.976 157.368 288.843 157.421 288.709 157.475C275.736 163.141 260.989 163.141 248.016 157.475C247.883 157.421 247.749 157.368 247.616 157.301C234.323 151.448 211.976 152.514 193.629 163.954C175.283 175.394 157.456 201.181 166.496 250.661C175.536 300.128 208.523 330.181 208.523 330.181C208.523 330.181 224.216 343.741 244.963 334.701C257.923 329.048 263.829 328.074 266.429 328.128C267.722 328.168 269.002 328.168 270.296 328.128C272.896 328.074 278.802 329.048 291.762 334.701C312.509 343.741 328.203 330.181 328.203 330.181C328.203 330.181 351.309 309.114 364.149 273.234C353.109 268.141 337.336 256.981 332.803 233.888Z" fill="black"/>
<path d="M262.521 155.436C262.521 155.436 256.721 106.142 312.254 97.3155L312.027 103.929C311.107 131.222 289.761 153.436 262.521 155.436Z" fill="black"/>
<path d="M476.99 112.888C476.99 108.675 476.457 104.768 475.39 101.168C474.337 97.568 472.697 94.4748 470.47 91.8615C468.257 89.2481 465.457 87.2081 462.057 85.7414C458.67 84.2614 454.35 83.5281 449.083 83.5281H437.963V143.688H449.15C454.07 143.688 458.23 143.088 461.644 141.875C465.057 140.661 467.897 138.781 470.163 136.248C472.443 133.715 474.15 130.515 475.283 126.661C476.417 122.808 476.99 118.208 476.99 112.888ZM484.31 112.541C484.31 118.621 483.55 123.981 482.017 128.621C480.497 133.261 478.23 137.141 475.257 140.275C472.27 143.408 468.59 145.768 464.217 147.381C459.83 148.981 454.603 149.781 448.523 149.781H434.27C433.603 149.781 432.91 149.528 432.203 149.021C431.497 148.528 431.137 147.595 431.137 146.261V80.9547C431.137 79.6214 431.497 78.6881 432.203 78.1948C432.91 77.6881 433.603 77.4346 434.27 77.4346H449.483C455.63 77.4346 460.817 78.2747 465.057 79.9547C469.283 81.6347 472.817 84.0081 475.67 87.0747C478.523 90.1547 480.683 93.848 482.137 98.1547C483.59 102.448 484.31 107.248 484.31 112.541Z" fill="black"/>
<path d="M537.146 123.448C537.146 120.582 536.866 117.835 536.306 115.235C535.746 112.622 534.812 110.315 533.506 108.329C532.199 106.329 530.452 104.742 528.252 103.568C526.052 102.395 523.319 101.808 520.039 101.808C517.012 101.808 514.399 102.355 512.212 103.435C510.012 104.515 508.212 106.009 506.812 107.929C505.412 109.849 504.372 112.115 503.706 114.729C503.039 117.342 502.706 120.155 502.706 123.168C502.706 126.075 502.986 128.848 503.546 131.475C504.092 134.102 505.026 136.395 506.332 138.382C507.639 140.355 509.386 141.915 511.586 143.075C513.786 144.235 516.532 144.808 519.812 144.808C522.826 144.808 525.439 144.262 527.639 143.182C529.839 142.102 531.639 140.608 533.025 138.715C534.425 136.808 535.466 134.555 536.132 131.942C536.799 129.342 537.146 126.502 537.146 123.448ZM544.186 122.835C544.186 126.862 543.665 130.568 542.625 133.955C541.572 137.355 540.026 140.302 537.946 142.795C535.879 145.289 533.306 147.235 530.212 148.635C527.119 150.035 523.519 150.729 519.412 150.729C515.466 150.729 512.012 150.102 509.052 148.862C506.079 147.609 503.599 145.822 501.612 143.488C499.612 141.168 498.132 138.342 497.132 135.022C496.146 131.702 495.652 127.955 495.652 123.782C495.652 119.755 496.172 116.049 497.199 112.662C498.226 109.262 499.772 106.328 501.839 103.848C503.906 101.368 506.479 99.4485 509.572 98.0619C512.666 96.6885 516.292 95.9952 520.425 95.9952C524.372 95.9952 527.826 96.6083 530.799 97.8483C533.759 99.075 536.226 100.848 538.199 103.182C540.172 105.515 541.666 108.328 542.679 111.648C543.679 114.968 544.186 118.702 544.186 122.835Z" fill="black"/>
<path d="M625.706 97.9553C625.706 98.142 625.679 98.3554 625.613 98.5954C625.559 98.8354 625.493 99.1154 625.426 99.4087L609.773 148.662C609.693 148.969 609.559 149.209 609.346 149.395C609.146 149.582 608.866 149.729 608.533 149.835C608.199 149.955 607.759 150.022 607.226 150.062C606.679 150.102 606.039 150.115 605.293 150.115C604.506 150.115 603.839 150.089 603.279 150.035C602.719 149.982 602.266 149.889 601.906 149.782C601.56 149.675 601.279 149.515 601.079 149.329C600.866 149.142 600.733 148.929 600.653 148.662L588.919 108.742L588.799 108.302L588.693 108.742L577.733 148.662C577.653 148.969 577.506 149.209 577.279 149.395C577.066 149.582 576.759 149.729 576.359 149.835C575.973 149.955 575.493 150.022 574.933 150.062C574.373 150.102 573.746 150.115 573.04 150.115C572.293 150.115 571.653 150.089 571.133 150.035C570.613 149.982 570.173 149.889 569.826 149.782C569.466 149.675 569.199 149.515 569.013 149.329C568.826 149.142 568.693 148.929 568.613 148.662L553.079 99.4087C552.959 99.1421 552.879 98.8887 552.826 98.622C552.773 98.3687 552.746 98.142 552.746 97.9553C552.746 97.6887 552.8 97.4753 552.906 97.2887C553.026 97.102 553.199 96.9554 553.466 96.8621C553.733 96.7688 554.066 96.7021 554.479 96.6621C554.879 96.6354 555.386 96.6087 555.986 96.6087C556.759 96.6087 557.399 96.6353 557.879 96.702C558.373 96.7553 558.733 96.8354 558.973 96.9421C559.213 97.0621 559.4 97.2088 559.506 97.3954C559.613 97.5821 559.706 97.8088 559.786 98.0621L573.146 142.235L573.253 142.622L573.373 142.235L585.506 98.0621C585.573 97.8088 585.679 97.5821 585.813 97.3954C585.946 97.2088 586.133 97.0621 586.373 96.9421C586.613 96.8354 586.946 96.7553 587.373 96.702C587.8 96.6353 588.359 96.6087 589.026 96.6087C589.653 96.6087 590.186 96.6353 590.586 96.702C590.999 96.7553 591.333 96.8354 591.599 96.9421C591.853 97.0621 592.039 97.2088 592.159 97.3954C592.266 97.5821 592.36 97.8088 592.44 98.0621L605.519 142.235L605.626 142.622L605.679 142.235L618.986 98.0621C619.066 97.8088 619.173 97.5821 619.306 97.3954C619.426 97.2088 619.626 97.0621 619.893 96.9421C620.146 96.8354 620.506 96.7553 620.973 96.702C621.44 96.6353 622.053 96.6087 622.799 96.6087C623.386 96.6087 623.879 96.6354 624.253 96.6621C624.626 96.7021 624.919 96.782 625.146 96.8887C625.359 97.0087 625.519 97.1419 625.586 97.3152C625.666 97.4752 625.706 97.6887 625.706 97.9553Z" fill="black"/>
<path d="M679.603 148.662C679.603 148.889 679.549 149.089 679.429 149.275C679.323 149.462 679.149 149.609 678.896 149.729C678.656 149.835 678.323 149.929 677.896 150.009C677.469 150.075 676.936 150.115 676.296 150.115C675.629 150.115 675.083 150.075 674.656 150.009C674.229 149.929 673.883 149.835 673.643 149.729C673.403 149.609 673.229 149.462 673.109 149.275C673.003 149.089 672.949 148.889 672.949 148.662V118.635C672.949 115.515 672.709 112.969 672.216 111.009C671.736 109.049 671.003 107.369 670.043 105.982C669.069 104.582 667.829 103.502 666.323 102.729C664.816 101.969 663.056 101.582 661.043 101.582C658.469 101.582 655.896 102.502 653.323 104.329C650.749 106.155 648.043 108.835 645.216 112.382V148.662C645.216 148.889 645.163 149.089 645.043 149.275C644.936 149.462 644.763 149.609 644.523 149.729C644.269 149.835 643.936 149.929 643.509 150.009C643.083 150.075 642.536 150.115 641.856 150.115C641.229 150.115 640.696 150.075 640.269 150.009C639.843 149.929 639.496 149.835 639.229 149.729C638.976 149.609 638.802 149.462 638.708 149.275C638.615 149.089 638.562 148.889 638.562 148.662V98.0621C638.562 97.8488 638.615 97.6352 638.708 97.4486C638.802 97.2619 638.976 97.1019 639.229 96.9819C639.496 96.8486 639.816 96.7553 640.216 96.702C640.603 96.6353 641.123 96.6087 641.749 96.6087C642.389 96.6087 642.909 96.6353 643.309 96.702C643.723 96.7553 644.043 96.8486 644.269 96.9819C644.496 97.1019 644.643 97.2619 644.736 97.4486C644.829 97.6352 644.883 97.8488 644.883 98.0621V105.222C647.789 101.982 650.643 99.6352 653.429 98.1819C656.229 96.7286 659.003 95.9954 661.763 95.9954C665.083 95.9954 667.882 96.5554 670.148 97.6754C672.428 98.7954 674.256 100.302 675.656 102.209C677.056 104.102 678.069 106.329 678.683 108.862C679.296 111.395 679.603 114.449 679.603 118.022V148.662Z" fill="black"/>
<path d="M704.708 148.662C704.708 148.889 704.641 149.089 704.535 149.275C704.428 149.462 704.241 149.609 704.001 149.729C703.761 149.835 703.428 149.929 703.001 150.009C702.575 150.075 702.015 150.115 701.348 150.115C700.708 150.115 700.188 150.075 699.748 150.009C699.321 149.929 698.975 149.835 698.721 149.729C698.455 149.609 698.281 149.462 698.188 149.275C698.095 149.089 698.055 148.889 698.055 148.662V73.302C698.055 73.0753 698.095 72.8753 698.188 72.6887C698.281 72.502 698.455 72.3421 698.721 72.2087C698.975 72.0754 699.321 71.9821 699.748 71.9288C700.188 71.8754 700.708 71.8486 701.348 71.8486C702.015 71.8486 702.575 71.8754 703.001 71.9288C703.428 71.9821 703.761 72.0754 704.001 72.2087C704.241 72.3421 704.428 72.502 704.535 72.6887C704.641 72.8753 704.708 73.0753 704.708 73.302V148.662Z" fill="black"/>
<path d="M761.054 123.448C761.054 120.582 760.774 117.835 760.214 115.235C759.654 112.622 758.734 110.315 757.427 108.329C756.121 106.329 754.374 104.742 752.174 103.568C749.974 102.395 747.227 101.808 743.947 101.808C740.934 101.808 738.321 102.355 736.121 103.435C733.921 104.515 732.121 106.009 730.721 107.929C729.334 109.849 728.294 112.115 727.627 114.729C726.947 117.342 726.614 120.155 726.614 123.168C726.614 126.075 726.894 128.848 727.454 131.475C728.014 134.102 728.947 136.395 730.254 138.382C731.561 140.355 733.308 141.915 735.508 143.075C737.708 144.235 740.441 144.808 743.721 144.808C746.747 144.808 749.361 144.262 751.547 143.182C753.747 142.102 755.547 140.608 756.947 138.715C758.347 136.808 759.374 134.555 760.054 131.942C760.721 129.342 761.054 126.502 761.054 123.448ZM768.108 122.835C768.108 126.862 767.587 130.568 766.534 133.955C765.494 137.355 763.934 140.302 761.867 142.795C759.801 145.289 757.214 147.235 754.121 148.635C751.027 150.035 747.441 150.729 743.334 150.729C739.387 150.729 735.921 150.102 732.961 148.862C730.001 147.609 727.521 145.822 725.534 143.488C723.534 141.168 722.041 138.342 721.054 135.022C720.067 131.702 719.574 127.955 719.574 123.782C719.574 119.755 720.081 116.049 721.108 112.662C722.134 109.262 723.681 106.328 725.747 103.848C727.814 101.368 730.401 99.4485 733.494 98.0619C736.587 96.6885 740.201 95.9952 744.347 95.9952C748.294 95.9952 751.748 96.6083 754.708 97.8483C757.681 99.075 760.147 100.848 762.121 103.182C764.094 105.515 765.587 108.328 766.587 111.648C767.601 114.968 768.108 118.702 768.108 122.835Z" fill="black"/>
<path d="M811.828 124.795H802.601C799.921 124.795 797.561 125.035 795.548 125.515C793.548 126.008 791.868 126.715 790.521 127.648C789.174 128.568 788.188 129.689 787.534 130.995C786.881 132.302 786.548 133.795 786.548 135.475C786.548 138.382 787.481 140.702 789.321 142.435C791.161 144.168 793.761 145.035 797.121 145.035C799.761 145.035 802.241 144.355 804.521 142.995C806.814 141.635 809.254 139.528 811.828 136.702V124.795ZM818.481 148.662C818.481 149.035 818.361 149.329 818.108 149.529C817.868 149.742 817.561 149.888 817.161 149.982C816.774 150.075 816.241 150.115 815.574 150.115C814.934 150.115 814.401 150.075 813.948 149.982C813.508 149.888 813.161 149.742 812.908 149.529C812.668 149.329 812.548 149.035 812.548 148.662V143.022C810.281 145.475 807.774 147.382 805.028 148.715C802.294 150.062 799.454 150.729 796.508 150.729C793.854 150.729 791.481 150.382 789.374 149.702C787.268 149.008 785.494 148.022 784.041 146.729C782.588 145.449 781.468 143.889 780.681 142.062C779.894 140.235 779.508 138.195 779.508 135.915C779.508 133.115 780.081 130.688 781.241 128.622C782.401 126.555 784.041 124.835 786.161 123.448C788.281 122.075 790.841 121.035 793.814 120.342C796.801 119.662 800.121 119.315 803.774 119.315H811.828V114.955C811.828 112.795 811.601 110.875 811.148 109.222C810.708 107.568 809.974 106.168 808.974 105.048C807.961 103.942 806.668 103.102 805.054 102.542C803.454 101.982 801.494 101.702 799.188 101.702C796.948 101.702 794.934 101.968 793.148 102.515C791.361 103.048 789.801 103.662 788.454 104.329C787.108 104.995 786.001 105.608 785.121 106.142C784.254 106.688 783.628 106.955 783.254 106.955C783.028 106.955 782.828 106.915 782.641 106.848C782.454 106.768 782.294 106.635 782.161 106.422C782.028 106.222 781.934 105.955 781.881 105.635C781.828 105.328 781.801 104.942 781.801 104.502C781.801 103.715 781.854 103.088 781.974 102.622C782.081 102.155 782.374 101.688 782.841 101.222C783.294 100.755 784.134 100.208 785.321 99.5816C786.521 98.9416 787.881 98.3551 789.428 97.8085C790.974 97.2751 792.641 96.835 794.441 96.5017C796.228 96.1684 798.014 95.9952 799.801 95.9952C803.268 95.9952 806.201 96.4219 808.574 97.2619C810.961 98.1019 812.894 99.3019 814.361 100.862C815.841 102.422 816.894 104.355 817.521 106.648C818.161 108.942 818.481 111.542 818.481 114.448V148.662Z" fill="black"/>
<path d="M871.081 112.155C868.294 108.768 865.601 106.168 863.014 104.382C860.414 102.595 857.707 101.702 854.867 101.702C852.307 101.702 850.107 102.315 848.281 103.542C846.454 104.782 844.961 106.395 843.801 108.408C842.654 110.422 841.814 112.702 841.281 115.235C840.761 117.768 840.508 120.342 840.508 122.942C840.508 125.742 840.734 128.462 841.174 131.102C841.628 133.755 842.387 136.115 843.467 138.182C844.547 140.248 845.988 141.902 847.774 143.155C849.561 144.408 851.801 145.035 854.481 145.035C855.827 145.035 857.134 144.848 858.401 144.475C859.667 144.102 860.961 143.488 862.308 142.622C863.654 141.768 865.041 140.662 866.481 139.302C867.907 137.942 869.441 136.248 871.081 134.235V112.155ZM877.734 148.662C877.734 148.929 877.694 149.142 877.601 149.329C877.507 149.515 877.334 149.675 877.094 149.782C876.854 149.888 876.548 149.982 876.174 150.035C875.801 150.088 875.334 150.115 874.774 150.115C874.174 150.115 873.681 150.088 873.294 150.035C872.907 149.982 872.587 149.888 872.347 149.782C872.107 149.675 871.921 149.515 871.788 149.329C871.654 149.142 871.588 148.929 871.588 148.662V141.395C868.908 144.302 866.134 146.582 863.254 148.248C860.388 149.902 857.254 150.729 853.867 150.729C850.214 150.729 847.107 150.022 844.534 148.608C841.961 147.195 839.868 145.275 838.241 142.848C836.614 140.422 835.441 137.582 834.694 134.329C833.947 131.062 833.574 127.608 833.574 123.955C833.574 119.662 834.041 115.795 834.974 112.355C835.908 108.902 837.281 105.968 839.108 103.542C840.934 101.128 843.187 99.2617 845.867 97.9551C848.561 96.6484 851.667 95.9952 855.214 95.9952C858.267 95.9952 861.054 96.675 863.601 98.035C866.134 99.395 868.627 101.408 871.081 104.048V73.5816C871.081 73.355 871.134 73.155 871.227 72.9684C871.321 72.7817 871.494 72.635 871.761 72.515C872.014 72.4083 872.361 72.315 872.788 72.235C873.228 72.1684 873.748 72.1285 874.388 72.1285C875.054 72.1285 875.601 72.1684 876.041 72.235C876.468 72.315 876.801 72.4083 877.041 72.515C877.281 72.635 877.454 72.7817 877.574 72.9684C877.681 73.155 877.734 73.355 877.734 73.5816V148.662Z" fill="black"/>
<path d="M960.04 123.448C960.04 120.582 959.76 117.835 959.2 115.235C958.64 112.622 957.707 110.315 956.4 108.329C955.094 106.329 953.347 104.742 951.147 103.568C948.947 102.395 946.214 101.808 942.934 101.808C939.907 101.808 937.307 102.355 935.107 103.435C932.907 104.515 931.107 106.009 929.707 107.929C928.307 109.849 927.28 112.115 926.6 114.729C925.934 117.342 925.6 120.155 925.6 123.168C925.6 126.075 925.88 128.848 926.44 131.475C927 134.102 927.933 136.395 929.227 138.382C930.533 140.355 932.294 141.915 934.48 143.075C936.68 144.235 939.427 144.808 942.707 144.808C945.72 144.808 948.334 144.262 950.534 143.182C952.734 142.102 954.534 140.608 955.934 138.715C957.32 136.808 958.36 134.555 959.027 131.942C959.707 129.342 960.04 126.502 960.04 123.448ZM967.08 122.835C967.08 126.862 966.56 130.568 965.52 133.955C964.467 137.355 962.92 140.302 960.854 142.795C958.774 145.289 956.2 147.235 953.107 148.635C950.014 150.035 946.414 150.729 942.32 150.729C938.36 150.729 934.907 150.102 931.947 148.862C928.974 147.609 926.507 145.822 924.507 143.488C922.507 141.168 921.027 138.342 920.04 135.022C919.04 131.702 918.547 127.955 918.547 123.782C918.547 119.755 919.067 116.049 920.093 112.662C921.12 109.262 922.667 106.328 924.734 103.848C926.8 101.368 929.387 99.4485 932.48 98.0619C935.574 96.6885 939.187 95.9952 943.32 95.9952C947.267 95.9952 950.733 96.6083 953.693 97.8483C956.653 99.075 959.12 100.848 961.093 103.182C963.08 105.515 964.56 108.328 965.574 111.648C966.574 114.968 967.08 118.702 967.08 122.835Z" fill="black"/>
<path d="M1023.04 148.662C1023.04 148.889 1022.99 149.089 1022.88 149.275C1022.77 149.462 1022.59 149.609 1022.35 149.729C1022.11 149.835 1021.77 149.929 1021.35 150.009C1020.91 150.075 1020.39 150.115 1019.75 150.115C1019.08 150.115 1018.53 150.075 1018.09 150.009C1017.67 149.929 1017.33 149.835 1017.09 149.729C1016.85 149.609 1016.67 149.462 1016.56 149.275C1016.45 149.089 1016.4 148.889 1016.4 148.662V118.635C1016.4 115.515 1016.15 112.969 1015.67 111.009C1015.19 109.049 1014.45 107.369 1013.48 105.982C1012.52 104.582 1011.28 103.502 1009.77 102.729C1008.25 101.969 1006.49 101.582 1004.48 101.582C1001.91 101.582 999.349 102.502 996.776 104.329C994.202 106.155 991.496 108.835 988.669 112.382V148.662C988.669 148.889 988.616 149.089 988.496 149.275C988.389 149.462 988.202 149.609 987.962 149.729C987.722 149.835 987.389 149.929 986.962 150.009C986.536 150.075 985.976 150.115 985.309 150.115C984.682 150.115 984.149 150.075 983.722 150.009C983.282 149.929 982.949 149.835 982.682 149.729C982.416 149.609 982.242 149.462 982.149 149.275C982.056 149.089 982.016 148.889 982.016 148.662V98.0621C982.016 97.8488 982.056 97.6352 982.149 97.4486C982.242 97.2619 982.416 97.1019 982.682 96.9819C982.949 96.8486 983.269 96.7553 983.656 96.702C984.056 96.6353 984.562 96.6087 985.202 96.6087C985.829 96.6087 986.349 96.6353 986.762 96.702C987.176 96.7553 987.496 96.8486 987.709 96.9819C987.936 97.1019 988.096 97.2619 988.189 97.4486C988.282 97.6352 988.336 97.8488 988.336 98.0621V105.222C991.242 101.982 994.082 99.6352 996.882 98.1819C999.682 96.7286 1002.45 95.9954 1005.21 95.9954C1008.53 95.9954 1011.32 96.5554 1013.6 97.6754C1015.87 98.7954 1017.71 100.302 1019.11 102.209C1020.51 104.102 1021.51 106.329 1022.12 108.862C1022.73 111.395 1023.04 114.449 1023.04 118.022V148.662Z" fill="black"/>
<path d="M1091.76 145.648C1091.76 146.434 1091.69 147.061 1091.56 147.541C1091.43 148.034 1091.23 148.408 1090.95 148.688C1090.67 148.968 1090.25 149.234 1089.72 149.474C1089.17 149.714 1088.55 149.914 1087.84 150.088C1087.13 150.261 1086.39 150.381 1085.61 150.474C1084.83 150.568 1084.07 150.621 1083.32 150.621C1080.81 150.621 1078.69 150.288 1076.95 149.608C1075.19 148.941 1073.76 147.928 1072.64 146.568C1071.52 145.208 1070.71 143.488 1070.2 141.395C1069.71 139.301 1069.45 136.848 1069.45 134.021V102.541H1061.91C1061.39 102.541 1060.97 102.301 1060.67 101.834C1060.37 101.368 1060.23 100.674 1060.23 99.7411C1060.23 99.2611 1060.27 98.8344 1060.33 98.4878C1060.41 98.1278 1060.52 97.8345 1060.67 97.5945C1060.83 97.3545 1061 97.1679 1061.2 97.0612C1061.41 96.9412 1061.64 96.8878 1061.91 96.8878H1069.45V84.4745C1069.45 84.2611 1069.49 84.0479 1069.59 83.8612C1069.68 83.6745 1069.87 83.5145 1070.12 83.3945C1070.39 83.2612 1070.73 83.1677 1071.16 83.1143C1071.59 83.0477 1072.12 83.0211 1072.75 83.0211C1073.43 83.0211 1073.97 83.0477 1074.4 83.1143C1074.83 83.1677 1075.16 83.2612 1075.4 83.3945C1075.65 83.5145 1075.83 83.6745 1075.93 83.8612C1076.05 84.0479 1076.11 84.2611 1076.11 84.4745V96.8878H1090.08C1090.35 96.8878 1090.57 96.9412 1090.79 97.0612C1090.99 97.1679 1091.16 97.3545 1091.31 97.5945C1091.47 97.8345 1091.57 98.1278 1091.65 98.4878C1091.72 98.8344 1091.76 99.2611 1091.76 99.7411C1091.76 100.674 1091.6 101.368 1091.28 101.834C1090.96 102.301 1090.56 102.541 1090.08 102.541H1076.11V133.114C1076.11 136.954 1076.65 139.888 1077.76 141.901C1078.85 143.914 1080.85 144.914 1083.76 144.914C1084.65 144.914 1085.47 144.821 1086.2 144.634C1086.92 144.448 1087.56 144.248 1088.12 144.021C1088.68 143.794 1089.16 143.594 1089.55 143.408C1089.95 143.221 1090.28 143.128 1090.59 143.128C1090.77 143.128 1090.93 143.168 1091.09 143.234C1091.24 143.314 1091.36 143.448 1091.45 143.661C1091.55 143.861 1091.61 144.128 1091.68 144.448C1091.73 144.754 1091.76 145.154 1091.76 145.648Z" fill="black"/>
<path d="M1146.04 148.662C1146.04 148.889 1145.99 149.089 1145.88 149.275C1145.76 149.462 1145.59 149.609 1145.35 149.729C1145.11 149.835 1144.77 149.929 1144.35 150.009C1143.91 150.075 1143.39 150.115 1142.75 150.115C1142.08 150.115 1141.53 150.075 1141.09 150.009C1140.67 149.929 1140.33 149.835 1140.09 149.729C1139.85 149.609 1139.67 149.462 1139.56 149.275C1139.45 149.089 1139.39 148.889 1139.39 148.662V118.635C1139.39 115.515 1139.15 112.969 1138.67 111.009C1138.19 109.049 1137.45 107.369 1136.48 105.982C1135.52 104.582 1134.28 103.502 1132.77 102.729C1131.25 101.969 1129.49 101.582 1127.48 101.582C1124.91 101.582 1122.35 102.502 1119.77 104.329C1117.2 106.155 1114.49 108.835 1111.67 112.382V148.662C1111.67 148.889 1111.6 149.089 1111.49 149.275C1111.39 149.462 1111.2 149.609 1110.96 149.729C1110.72 149.835 1110.39 149.929 1109.96 150.009C1109.53 150.075 1108.97 150.115 1108.31 150.115C1107.68 150.115 1107.15 150.075 1106.72 150.009C1106.28 149.929 1105.95 149.835 1105.68 149.729C1105.41 149.609 1105.24 149.462 1105.15 149.275C1105.05 149.089 1105.01 148.889 1105.01 148.662V73.302C1105.01 73.0753 1105.05 72.8753 1105.15 72.6887C1105.24 72.502 1105.41 72.3421 1105.68 72.2087C1105.95 72.0754 1106.28 71.9821 1106.72 71.9288C1107.15 71.8754 1107.68 71.8486 1108.31 71.8486C1108.97 71.8486 1109.53 71.8754 1109.96 71.9288C1110.39 71.9821 1110.72 72.0754 1110.96 72.2087C1111.2 72.3421 1111.39 72.502 1111.49 72.6887C1111.6 72.8753 1111.67 73.0753 1111.67 73.302V104.889C1114.43 101.835 1117.17 99.582 1119.93 98.1553C1122.69 96.7153 1125.45 95.9954 1128.21 95.9954C1131.53 95.9954 1134.32 96.5554 1136.6 97.6754C1138.87 98.7954 1140.71 100.302 1142.11 102.209C1143.51 104.102 1144.51 106.329 1145.12 108.862C1145.73 111.395 1146.04 114.449 1146.04 118.022V148.662Z" fill="black"/>
<path d="M1198.88 118.808C1198.99 113.435 1197.76 109.248 1195.19 106.235C1192.61 103.208 1188.87 101.702 1183.95 101.702C1181.41 101.702 1179.19 102.182 1177.27 103.129C1175.35 104.075 1173.73 105.328 1172.41 106.902C1171.08 108.462 1170.07 110.288 1169.36 112.355C1168.65 114.422 1168.24 116.568 1168.13 118.808H1198.88ZM1205.76 120.768C1205.76 122.102 1205.4 123.035 1204.69 123.529C1203.99 124.035 1203.29 124.288 1202.63 124.288H1168.13C1168.13 127.422 1168.44 130.248 1169.05 132.782C1169.67 135.315 1170.68 137.488 1172.09 139.302C1173.52 141.102 1175.36 142.502 1177.64 143.462C1179.91 144.435 1182.71 144.915 1186.03 144.915C1188.37 144.915 1190.48 144.715 1192.33 144.302C1194.2 143.888 1195.81 143.435 1197.17 142.929C1198.53 142.435 1199.65 141.968 1200.53 141.568C1201.4 141.155 1202.03 140.942 1202.4 140.942C1202.63 140.942 1202.83 141.008 1203.01 141.115C1203.2 141.235 1203.35 141.408 1203.47 141.648C1203.57 141.888 1203.67 142.195 1203.72 142.568C1203.77 142.942 1203.8 143.408 1203.8 143.968C1203.8 144.235 1203.79 144.475 1203.75 144.729C1203.71 144.969 1203.67 145.182 1203.6 145.395C1203.55 145.595 1203.47 145.795 1203.35 145.982C1203.24 146.168 1203.09 146.355 1202.91 146.542C1202.72 146.728 1202.15 147.048 1201.17 147.515C1200.2 147.982 1198.93 148.448 1197.37 148.915C1195.8 149.382 1193.99 149.795 1191.92 150.168C1189.85 150.542 1187.63 150.729 1185.24 150.729C1181.32 150.729 1177.85 150.142 1174.84 148.968C1171.83 147.795 1169.28 146.062 1167.24 143.768C1165.19 141.475 1163.63 138.635 1162.57 135.248C1161.51 131.848 1160.97 127.915 1160.97 123.448C1160.97 119.168 1161.52 115.329 1162.63 111.929C1163.72 108.542 1165.29 105.662 1167.35 103.288C1169.4 100.928 1171.87 99.1151 1174.76 97.8751C1177.64 96.6218 1180.85 95.9952 1184.4 95.9952C1188.2 95.9952 1191.44 96.635 1194.13 97.9017C1196.81 99.1684 1199.01 100.875 1200.75 103.008C1202.48 105.155 1203.76 107.648 1204.56 110.475C1205.36 113.315 1205.76 116.288 1205.76 119.422V120.768Z" fill="black"/>
<path d="M618.416 291.475C617.536 295.662 616.136 299.462 614.256 302.768C612.443 305.942 610.069 308.542 607.203 310.475C604.416 312.368 601.123 313.288 597.136 313.288C592.776 313.288 588.696 311.902 584.656 309.035C580.589 306.155 576.243 301.968 571.736 296.608V259.848C574.243 256.768 576.643 254.142 578.909 252.022C581.336 249.755 583.669 247.888 585.883 246.488C588.003 245.128 590.083 244.155 592.069 243.568C594.069 242.995 596.136 242.702 598.216 242.702C602.336 242.702 605.736 243.622 608.363 245.435C611.083 247.328 613.296 249.902 614.936 253.075C616.669 256.408 617.909 260.275 618.643 264.595C619.403 269.035 619.789 273.729 619.789 278.529C619.789 282.849 619.323 287.195 618.416 291.475ZM635.789 257.875C634.443 251.888 632.216 246.542 629.176 242.008C626.083 237.382 622.016 233.675 617.096 231.008C612.176 228.328 606.189 226.968 599.309 226.968C596.136 226.968 593.083 227.328 590.243 228.035C587.403 228.755 584.576 229.862 581.883 231.355C579.243 232.822 576.576 234.662 573.963 236.835C572.923 237.688 571.856 238.622 570.749 239.622V226.968H554.336V360.648H571.736V318.568C572.523 319.262 573.296 319.902 574.043 320.515C576.363 322.395 578.736 323.982 581.069 325.235C583.483 326.528 585.976 327.502 588.496 328.102C591.003 328.715 593.709 329.022 596.549 329.022C603.123 329.022 609.069 327.742 614.229 325.235C619.403 322.728 623.803 319.115 627.309 314.515C630.763 309.982 633.403 304.422 635.176 297.982C636.909 291.675 637.776 284.502 637.776 276.662C637.776 270.049 637.109 263.742 635.789 257.875Z" fill="black"/>
<path d="M723.135 291.475C722.255 295.662 720.855 299.462 718.975 302.768C717.175 305.942 714.801 308.542 711.935 310.475C709.135 312.368 705.841 313.288 701.868 313.288C697.508 313.288 693.428 311.902 689.388 309.035C685.308 306.155 680.975 301.968 676.468 296.608V259.848C678.961 256.768 681.375 254.142 683.628 252.022C686.055 249.755 688.401 247.888 690.601 246.488C692.721 245.128 694.801 244.155 696.801 243.568C698.788 242.995 700.868 242.702 702.948 242.702C707.055 242.702 710.468 243.622 713.081 245.435C715.801 247.328 718.015 249.902 719.655 253.075C721.388 256.408 722.628 260.275 723.375 264.595C724.121 269.035 724.508 273.729 724.508 278.529C724.508 282.849 724.041 287.195 723.135 291.475ZM740.521 257.875C739.161 251.888 736.935 246.542 733.908 242.008C730.801 237.382 726.735 233.675 721.828 231.008C716.895 228.328 710.908 226.968 704.028 226.968C700.855 226.968 697.815 227.328 694.975 228.035C692.121 228.755 689.308 229.862 686.601 231.355C683.975 232.822 681.308 234.662 678.681 236.835C677.641 237.688 676.575 238.622 675.481 239.622V226.968H659.055V360.648H676.468V318.568C677.241 319.262 678.015 319.915 678.761 320.515C681.095 322.395 683.455 323.982 685.801 325.235C688.201 326.528 690.695 327.502 693.215 328.102C695.721 328.715 698.441 329.022 701.268 329.022C707.841 329.022 713.801 327.742 718.961 325.235C724.121 322.728 728.535 319.115 732.028 314.515C735.495 309.982 738.135 304.422 739.895 297.982C741.628 291.675 742.508 284.502 742.508 276.662C742.508 270.049 741.841 263.728 740.521 257.875Z" fill="black"/>
<path d="M1031.29 278.142C1031.29 283.262 1030.73 288.048 1029.61 292.395C1028.53 296.608 1026.85 300.288 1024.61 303.328C1022.44 306.288 1019.6 308.635 1016.16 310.328C1012.69 312.035 1008.48 312.888 1003.64 312.888C998.363 312.888 993.936 311.981 990.496 310.168C987.069 308.368 984.309 305.915 982.296 302.848C980.203 299.688 978.683 295.928 977.776 291.675C976.843 287.262 976.363 282.541 976.363 277.648C976.363 272.595 976.936 267.835 978.043 263.501C979.136 259.275 980.816 255.581 983.056 252.501C985.23 249.515 988.07 247.155 991.51 245.462C994.963 243.768 999.176 242.901 1004.03 242.901C1009.31 242.901 1013.72 243.835 1017.16 245.662C1020.59 247.488 1023.35 249.982 1025.36 253.075C1027.45 256.275 1028.99 260.048 1029.88 264.275C1030.83 268.648 1031.29 273.315 1031.29 278.142ZM1038.19 240.621C1034.43 236.195 1029.68 232.768 1024.07 230.435C1018.53 228.128 1012.01 226.968 1004.72 226.968C997.069 226.968 990.256 228.275 984.47 230.862C978.643 233.448 973.71 237.141 969.803 241.821C965.936 246.461 963.003 252.008 961.096 258.328C959.216 264.528 958.27 271.395 958.27 278.728C958.27 286.328 959.19 293.248 961.003 299.328C962.843 305.528 965.683 310.888 969.443 315.275C973.216 319.702 977.976 323.141 983.59 325.501C989.123 327.835 995.643 329.021 1002.95 329.021C1010.53 329.021 1017.32 327.702 1023.12 325.075C1028.93 322.448 1033.87 318.728 1037.77 314.008C1041.63 309.342 1044.57 303.781 1046.52 297.488C1048.43 291.275 1049.4 284.395 1049.4 277.062C1049.4 269.528 1048.47 262.635 1046.61 256.542C1044.73 250.368 1041.91 245.008 1038.19 240.621Z" fill="black"/>
<path d="M463.256 275.689L483.349 218.409L503.922 275.689H463.256ZM494.295 198.315H473.602L430.469 328.822H448.122L457.722 291.422H509.602L519.549 328.822H537.429L494.295 198.315Z" fill="black"/>
<path d="M878.852 275.901C876.999 271.955 874.519 268.461 871.452 265.515C868.466 262.635 865.039 260.102 861.279 257.995C857.652 255.968 853.919 254.048 850.172 252.288C846.492 250.568 842.826 248.808 839.279 247.088C835.892 245.435 832.826 243.568 830.172 241.528C827.639 239.595 825.599 237.341 824.079 234.835C822.652 232.475 821.932 229.568 821.932 226.168C821.932 223.848 822.345 221.622 823.159 219.528C823.972 217.488 825.145 215.742 826.759 214.208C828.359 212.688 830.452 211.448 832.959 210.542C835.519 209.608 838.599 209.142 842.119 209.142C845.746 209.142 849.012 209.581 851.812 210.435C854.706 211.328 857.225 212.341 859.292 213.435C861.439 214.568 863.239 215.608 864.639 216.515L871.839 201.475C870.986 200.622 869.559 199.688 867.306 198.501C865.252 197.421 862.892 196.435 860.292 195.568C857.719 194.715 854.959 193.995 852.092 193.448C849.185 192.901 846.252 192.621 843.399 192.621C837.746 192.621 832.466 193.395 827.719 194.915C822.879 196.475 818.666 198.755 815.172 201.701C811.652 204.688 808.879 208.368 806.946 212.648C805.012 216.901 804.039 221.755 804.039 227.062C804.039 232.502 804.986 237.315 806.852 241.355C808.706 245.315 811.172 248.835 814.199 251.781C817.146 254.661 820.532 257.208 824.266 259.355C827.852 261.408 831.586 263.355 835.346 265.115C839.012 266.835 842.666 268.595 846.172 270.315C849.532 271.968 852.572 273.821 855.199 275.821C857.692 277.728 859.719 279.968 861.239 282.475C862.666 284.822 863.386 287.741 863.386 291.128C863.386 294.515 862.786 297.555 861.612 300.155C860.452 302.728 858.812 304.915 856.719 306.661C854.586 308.461 851.999 309.848 849.012 310.821C845.972 311.808 842.559 312.301 838.866 312.301C834.252 312.301 830.186 311.768 826.772 310.701C823.226 309.608 820.172 308.408 817.666 307.142C815.132 305.862 813.052 304.675 811.492 303.595L807.906 321.621C809.959 322.768 812.492 323.902 815.439 325.008C818.372 326.102 821.759 327.048 825.492 327.835C829.279 328.621 833.346 329.021 837.586 329.021C843.839 329.021 849.692 328.141 854.999 326.421C860.386 324.675 865.119 322.088 869.052 318.755C873.039 315.368 876.172 311.221 878.372 306.395C880.559 301.581 881.679 296.075 881.679 290.048C881.679 284.662 880.732 279.901 878.852 275.901Z" fill="black"/>
<path d="M938.892 311.716C938.025 312.062 936.998 312.396 935.852 312.689C934.812 312.956 933.598 313.089 932.278 313.089C926.905 313.089 925.092 310.902 924.198 309.262C922.492 306.156 921.638 301.409 921.638 295.169V244.182H942.812V228.542H921.638V209.542L904.225 217.209V228.542H894.785V244.182H904.225V296.742C904.225 301.929 904.705 306.529 905.638 310.409C906.625 314.489 908.252 317.929 910.492 320.649C912.772 323.422 915.718 325.516 919.252 326.862C922.638 328.169 926.758 328.822 931.492 328.822C932.905 328.822 934.372 328.729 935.865 328.556C937.332 328.382 938.772 328.129 940.118 327.809C941.532 327.476 942.812 327.049 943.918 326.556L941.238 310.716C940.612 311.009 939.825 311.342 938.892 311.716Z" fill="black"/>
<path d="M1109.48 226.982C1109.23 226.969 1108.99 226.969 1108.75 226.969C1106.56 226.969 1104.4 227.222 1102.32 227.742C1100.15 228.276 1097.92 229.276 1095.68 230.729C1093.53 232.129 1091.28 234.076 1088.96 236.516C1088.27 237.262 1087.55 238.089 1086.8 238.982V226.969H1069.99V328.822H1087.39V263.115C1089.67 259.502 1091.77 256.382 1093.65 253.862C1095.61 251.276 1097.47 249.182 1099.19 247.636C1100.83 246.169 1102.37 245.102 1103.8 244.476C1105.16 243.876 1106.48 243.582 1107.87 243.582C1108.27 243.582 1108.69 243.609 1109.2 243.636L1112.25 243.862V227.049L1109.48 226.982Z" fill="black"/>
<path d="M1144.38 259.528C1145.51 256.235 1147.13 253.315 1149.23 250.848C1151.28 248.408 1153.86 246.408 1156.87 244.915C1159.84 243.448 1163.38 242.701 1167.38 242.701C1175.23 242.701 1180.99 244.982 1184.99 249.675C1188.59 253.902 1190.54 259.755 1190.79 267.128H1142.63C1142.95 264.515 1143.54 261.968 1144.38 259.528ZM1196.61 306.901C1196.21 307.061 1195.8 307.235 1195.35 307.448C1193.88 308.142 1191.98 308.915 1189.67 309.768C1187.4 310.608 1184.67 311.382 1181.52 312.075C1178.46 312.742 1174.92 313.088 1171.01 313.088C1165.59 313.088 1161 312.301 1157.36 310.755C1153.83 309.248 1150.93 307.075 1148.75 304.288C1146.52 301.448 1144.9 297.955 1143.91 293.901C1143.07 290.461 1142.57 286.622 1142.41 282.462H1200.24C1202.03 282.462 1203.8 281.835 1205.54 280.608C1207.58 279.168 1208.6 276.741 1208.6 273.421V271.062C1208.6 265.302 1207.86 259.742 1206.39 254.528C1204.87 249.195 1202.44 244.435 1199.16 240.381C1195.85 236.288 1191.59 232.995 1186.51 230.581C1181.42 228.181 1175.24 226.968 1168.16 226.968C1161.56 226.968 1155.47 228.155 1150.06 230.501C1144.6 232.861 1139.87 236.315 1135.99 240.795C1132.15 245.235 1129.16 250.675 1127.11 256.981C1125.1 263.221 1124.07 270.328 1124.07 278.142C1124.07 286.262 1125.06 293.541 1127 299.768C1128.99 306.101 1131.96 311.501 1135.81 315.821C1139.72 320.168 1144.59 323.501 1150.29 325.728C1155.92 327.915 1162.43 329.021 1169.64 329.021C1173.99 329.021 1178.11 328.675 1181.91 327.995C1185.63 327.315 1188.96 326.555 1191.8 325.701C1193.63 325.168 1195.23 324.622 1196.61 324.075V306.901Z" fill="black"/>
</g>
<defs>
<clipPath id="clip0_102_391">
<rect width="1444" height="435" fill="white" transform="translate(0 0.5)"/>
</clipPath>
</defs>
</svg>
