<svg width="1444" height="435" viewBox="0 0 1444 435" fill="none" xmlns="http://www.w3.org/2000/svg">
<path d="M1360 0.000676916H83.3734C37.3334 0.000676916 0 37.3341 0 83.3874V350.734C0 396.787 37.3334 434.107 83.3734 434.107H1360C1406.05 434.107 1443.37 396.787 1443.37 350.734V83.3874C1443.37 37.3341 1406.05 0.000676916 1360 0.000676916Z" fill="#191919"/>
<path d="M332.801 233.388C325.854 198.081 356.547 179.241 358.787 177.908C354.081 171.628 348.614 166.894 343.094 163.454C324.747 152.014 302.401 150.948 289.107 156.801C288.974 156.868 288.841 156.921 288.707 156.975C275.734 162.641 260.987 162.641 248.014 156.975C247.881 156.921 247.747 156.868 247.614 156.801C234.321 150.948 211.974 152.014 193.627 163.454C175.281 174.894 157.454 200.681 166.494 250.161C175.534 299.628 208.521 329.681 208.521 329.681C208.521 329.681 224.214 343.241 244.961 334.201C257.921 328.548 263.827 327.574 266.427 327.628C267.72 327.668 269 327.668 270.294 327.628C272.894 327.574 278.8 328.548 291.76 334.201C312.507 343.241 328.201 329.681 328.201 329.681C328.201 329.681 351.307 308.614 364.147 272.734C353.107 267.641 337.334 256.481 332.801 233.388Z" fill="white"/>
<path d="M262.521 154.936C262.521 154.936 256.721 105.642 312.254 96.8155L312.027 103.429C311.107 130.722 289.761 152.936 262.521 154.936Z" fill="white"/>
<path d="M476.988 112.388C476.988 108.175 476.455 104.268 475.388 100.668C474.335 97.068 472.695 93.9748 470.468 91.3615C468.255 88.7481 465.455 86.7081 462.055 85.2414C458.668 83.7614 454.348 83.0281 449.081 83.0281H437.961V143.188H449.148C454.068 143.188 458.228 142.588 461.642 141.375C465.055 140.161 467.895 138.281 470.161 135.748C472.441 133.215 474.148 130.015 475.281 126.161C476.415 122.308 476.988 117.708 476.988 112.388ZM484.308 112.041C484.308 118.121 483.548 123.481 482.015 128.121C480.495 132.761 478.228 136.641 475.255 139.775C472.268 142.908 468.588 145.268 464.215 146.881C459.828 148.481 454.601 149.281 448.521 149.281H434.268C433.601 149.281 432.908 149.028 432.201 148.521C431.495 148.028 431.135 147.095 431.135 145.761V80.4547C431.135 79.1214 431.495 78.1881 432.201 77.6948C432.908 77.1881 433.601 76.9346 434.268 76.9346H449.481C455.628 76.9346 460.815 77.7747 465.055 79.4547C469.281 81.1347 472.815 83.5081 475.668 86.5747C478.521 89.6547 480.681 93.348 482.135 97.6547C483.588 101.948 484.308 106.748 484.308 112.041Z" fill="white"/>
<path d="M537.148 122.948C537.148 120.082 536.868 117.335 536.308 114.735C535.748 112.122 534.814 109.815 533.508 107.829C532.201 105.829 530.454 104.242 528.254 103.068C526.054 101.895 523.321 101.308 520.041 101.308C517.014 101.308 514.401 101.855 512.214 102.935C510.014 104.015 508.214 105.509 506.814 107.429C505.414 109.349 504.374 111.615 503.708 114.229C503.041 116.842 502.708 119.655 502.708 122.668C502.708 125.575 502.988 128.348 503.548 130.975C504.094 133.602 505.028 135.895 506.334 137.882C507.641 139.855 509.388 141.415 511.588 142.575C513.788 143.735 516.534 144.308 519.814 144.308C522.828 144.308 525.441 143.762 527.641 142.682C529.841 141.602 531.641 140.108 533.027 138.215C534.427 136.308 535.468 134.055 536.134 131.442C536.801 128.842 537.148 126.002 537.148 122.948ZM544.188 122.335C544.188 126.362 543.667 130.068 542.627 133.455C541.574 136.855 540.028 139.802 537.948 142.295C535.881 144.789 533.308 146.735 530.214 148.135C527.121 149.535 523.521 150.229 519.414 150.229C515.468 150.229 512.014 149.602 509.054 148.362C506.081 147.109 503.601 145.322 501.614 142.988C499.614 140.668 498.134 137.842 497.134 134.522C496.148 131.202 495.654 127.455 495.654 123.282C495.654 119.255 496.174 115.549 497.201 112.162C498.228 108.762 499.774 105.828 501.841 103.348C503.908 100.868 506.481 98.9485 509.574 97.5619C512.668 96.1885 516.294 95.4952 520.427 95.4952C524.374 95.4952 527.828 96.1083 530.801 97.3483C533.761 98.575 536.228 100.348 538.201 102.682C540.174 105.015 541.668 107.828 542.681 111.148C543.681 114.468 544.188 118.202 544.188 122.335Z" fill="white"/>
<path d="M625.708 97.4553C625.708 97.642 625.681 97.8554 625.615 98.0954C625.561 98.3354 625.495 98.6154 625.428 98.9087L609.775 148.162C609.695 148.469 609.561 148.709 609.348 148.895C609.148 149.082 608.868 149.229 608.535 149.335C608.201 149.455 607.761 149.522 607.228 149.562C606.681 149.602 606.041 149.615 605.295 149.615C604.508 149.615 603.841 149.589 603.281 149.535C602.721 149.482 602.268 149.389 601.908 149.282C601.562 149.175 601.281 149.015 601.081 148.829C600.868 148.642 600.735 148.429 600.655 148.162L588.921 108.242L588.801 107.802L588.695 108.242L577.735 148.162C577.655 148.469 577.508 148.709 577.281 148.895C577.068 149.082 576.761 149.229 576.361 149.335C575.975 149.455 575.495 149.522 574.935 149.562C574.375 149.602 573.748 149.615 573.042 149.615C572.295 149.615 571.655 149.589 571.135 149.535C570.615 149.482 570.175 149.389 569.828 149.282C569.468 149.175 569.201 149.015 569.015 148.829C568.828 148.642 568.695 148.429 568.615 148.162L553.081 98.9087C552.961 98.6421 552.881 98.3887 552.828 98.122C552.775 97.8687 552.748 97.642 552.748 97.4553C552.748 97.1887 552.802 96.9753 552.908 96.7887C553.028 96.602 553.201 96.4554 553.468 96.3621C553.735 96.2688 554.068 96.2021 554.481 96.1621C554.881 96.1354 555.388 96.1087 555.988 96.1087C556.761 96.1087 557.401 96.1353 557.881 96.202C558.375 96.2553 558.735 96.3354 558.975 96.4421C559.215 96.5621 559.402 96.7088 559.508 96.8954C559.615 97.0821 559.708 97.3088 559.788 97.5621L573.148 141.735L573.255 142.122L573.375 141.735L585.508 97.5621C585.575 97.3088 585.681 97.0821 585.815 96.8954C585.948 96.7088 586.135 96.5621 586.375 96.4421C586.615 96.3354 586.948 96.2553 587.375 96.202C587.802 96.1353 588.361 96.1087 589.028 96.1087C589.655 96.1087 590.188 96.1353 590.588 96.202C591.001 96.2553 591.335 96.3354 591.601 96.4421C591.855 96.5621 592.041 96.7088 592.161 96.8954C592.268 97.0821 592.362 97.3088 592.442 97.5621L605.521 141.735L605.628 142.122L605.681 141.735L618.988 97.5621C619.068 97.3088 619.175 97.0821 619.308 96.8954C619.428 96.7088 619.628 96.5621 619.895 96.4421C620.148 96.3354 620.508 96.2553 620.975 96.202C621.442 96.1353 622.055 96.1087 622.801 96.1087C623.388 96.1087 623.881 96.1354 624.255 96.1621C624.628 96.2021 624.921 96.282 625.148 96.3887C625.361 96.5087 625.521 96.6419 625.588 96.8152C625.668 96.9752 625.708 97.1887 625.708 97.4553Z" fill="white"/>
<path d="M679.601 148.162C679.601 148.389 679.547 148.589 679.427 148.775C679.321 148.962 679.147 149.109 678.894 149.229C678.654 149.335 678.321 149.429 677.894 149.509C677.467 149.575 676.934 149.615 676.294 149.615C675.627 149.615 675.081 149.575 674.654 149.509C674.227 149.429 673.881 149.335 673.641 149.229C673.401 149.109 673.227 148.962 673.107 148.775C673.001 148.589 672.947 148.389 672.947 148.162V118.135C672.947 115.015 672.707 112.469 672.214 110.509C671.734 108.549 671.001 106.869 670.041 105.482C669.067 104.082 667.827 103.002 666.321 102.229C664.814 101.469 663.054 101.082 661.041 101.082C658.467 101.082 655.894 102.002 653.321 103.829C650.747 105.655 648.041 108.335 645.214 111.882V148.162C645.214 148.389 645.161 148.589 645.041 148.775C644.934 148.962 644.761 149.109 644.521 149.229C644.267 149.335 643.934 149.429 643.507 149.509C643.081 149.575 642.534 149.615 641.854 149.615C641.227 149.615 640.694 149.575 640.267 149.509C639.841 149.429 639.494 149.335 639.227 149.229C638.974 149.109 638.801 148.962 638.707 148.775C638.614 148.589 638.561 148.389 638.561 148.162V97.5621C638.561 97.3488 638.614 97.1352 638.707 96.9486C638.801 96.7619 638.974 96.6019 639.227 96.4819C639.494 96.3486 639.814 96.2553 640.214 96.202C640.601 96.1353 641.121 96.1087 641.747 96.1087C642.387 96.1087 642.907 96.1353 643.307 96.202C643.721 96.2553 644.041 96.3486 644.267 96.4819C644.494 96.6019 644.641 96.7619 644.734 96.9486C644.827 97.1352 644.881 97.3488 644.881 97.5621V104.722C647.787 101.482 650.641 99.1352 653.427 97.6819C656.227 96.2286 659.001 95.4954 661.761 95.4954C665.081 95.4954 667.881 96.0554 670.147 97.1754C672.427 98.2954 674.254 99.8021 675.654 101.709C677.054 103.602 678.067 105.829 678.681 108.362C679.294 110.895 679.601 113.949 679.601 117.522V148.162Z" fill="white"/>
<path d="M704.708 148.162C704.708 148.389 704.641 148.589 704.535 148.775C704.428 148.962 704.241 149.109 704.001 149.229C703.761 149.335 703.428 149.429 703.001 149.509C702.575 149.575 702.015 149.615 701.348 149.615C700.708 149.615 700.188 149.575 699.748 149.509C699.321 149.429 698.975 149.335 698.721 149.229C698.455 149.109 698.281 148.962 698.188 148.775C698.095 148.589 698.055 148.389 698.055 148.162V72.802C698.055 72.5753 698.095 72.3753 698.188 72.1887C698.281 72.002 698.455 71.8421 698.721 71.7087C698.975 71.5754 699.321 71.4821 699.748 71.4288C700.188 71.3754 700.708 71.3486 701.348 71.3486C702.015 71.3486 702.575 71.3754 703.001 71.4288C703.428 71.4821 703.761 71.5754 704.001 71.7087C704.241 71.8421 704.428 72.002 704.535 72.1887C704.641 72.3753 704.708 72.5753 704.708 72.802V148.162Z" fill="white"/>
<path d="M761.054 122.948C761.054 120.082 760.774 117.335 760.214 114.735C759.654 112.122 758.734 109.815 757.427 107.829C756.121 105.829 754.374 104.242 752.174 103.068C749.974 101.895 747.227 101.308 743.947 101.308C740.934 101.308 738.321 101.855 736.121 102.935C733.921 104.015 732.121 105.509 730.721 107.429C729.334 109.349 728.294 111.615 727.627 114.229C726.947 116.842 726.614 119.655 726.614 122.668C726.614 125.575 726.894 128.348 727.454 130.975C728.014 133.602 728.947 135.895 730.254 137.882C731.561 139.855 733.308 141.415 735.508 142.575C737.708 143.735 740.441 144.308 743.721 144.308C746.747 144.308 749.361 143.762 751.547 142.682C753.747 141.602 755.547 140.108 756.947 138.215C758.347 136.308 759.374 134.055 760.054 131.442C760.721 128.842 761.054 126.002 761.054 122.948ZM768.108 122.335C768.108 126.362 767.587 130.068 766.534 133.455C765.494 136.855 763.934 139.802 761.867 142.295C759.801 144.789 757.214 146.735 754.121 148.135C751.027 149.535 747.441 150.229 743.334 150.229C739.387 150.229 735.921 149.602 732.961 148.362C730.001 147.109 727.521 145.322 725.534 142.988C723.534 140.668 722.041 137.842 721.054 134.522C720.067 131.202 719.574 127.455 719.574 123.282C719.574 119.255 720.081 115.549 721.108 112.162C722.134 108.762 723.681 105.828 725.747 103.348C727.814 100.868 730.401 98.9485 733.494 97.5619C736.587 96.1885 740.201 95.4952 744.347 95.4952C748.294 95.4952 751.748 96.1083 754.708 97.3483C757.681 98.575 760.147 100.348 762.121 102.682C764.094 105.015 765.587 107.828 766.587 111.148C767.601 114.468 768.108 118.202 768.108 122.335Z" fill="white"/>
<path d="M811.828 124.295H802.601C799.921 124.295 797.561 124.535 795.548 125.015C793.548 125.508 791.868 126.215 790.521 127.148C789.174 128.068 788.188 129.189 787.534 130.495C786.881 131.802 786.548 133.295 786.548 134.975C786.548 137.882 787.481 140.202 789.321 141.935C791.161 143.668 793.761 144.535 797.121 144.535C799.761 144.535 802.241 143.855 804.521 142.495C806.814 141.135 809.254 139.028 811.828 136.202V124.295ZM818.481 148.162C818.481 148.535 818.361 148.829 818.108 149.029C817.868 149.242 817.561 149.388 817.161 149.482C816.774 149.575 816.241 149.615 815.574 149.615C814.934 149.615 814.401 149.575 813.948 149.482C813.508 149.388 813.161 149.242 812.908 149.029C812.668 148.829 812.548 148.535 812.548 148.162V142.522C810.281 144.975 807.774 146.882 805.028 148.215C802.294 149.562 799.454 150.229 796.508 150.229C793.854 150.229 791.481 149.882 789.374 149.202C787.268 148.508 785.494 147.522 784.041 146.229C782.588 144.949 781.468 143.389 780.681 141.562C779.894 139.735 779.508 137.695 779.508 135.415C779.508 132.615 780.081 130.188 781.241 128.122C782.401 126.055 784.041 124.335 786.161 122.948C788.281 121.575 790.841 120.535 793.814 119.842C796.801 119.162 800.121 118.815 803.774 118.815H811.828V114.455C811.828 112.295 811.601 110.375 811.148 108.722C810.708 107.068 809.974 105.668 808.974 104.548C807.961 103.442 806.668 102.602 805.054 102.042C803.454 101.482 801.494 101.202 799.188 101.202C796.948 101.202 794.934 101.468 793.148 102.015C791.361 102.548 789.801 103.162 788.454 103.829C787.108 104.495 786.001 105.108 785.121 105.642C784.254 106.188 783.628 106.455 783.254 106.455C783.028 106.455 782.828 106.415 782.641 106.348C782.454 106.268 782.294 106.135 782.161 105.922C782.028 105.722 781.934 105.455 781.881 105.135C781.828 104.828 781.801 104.442 781.801 104.002C781.801 103.215 781.854 102.588 781.974 102.122C782.081 101.655 782.374 101.188 782.841 100.722C783.294 100.255 784.134 99.7083 785.321 99.0816C786.521 98.4416 787.881 97.8551 789.428 97.3085C790.974 96.7751 792.641 96.335 794.441 96.0017C796.228 95.6684 798.014 95.4952 799.801 95.4952C803.268 95.4952 806.201 95.9219 808.574 96.7619C810.961 97.6019 812.894 98.8019 814.361 100.362C815.841 101.922 816.894 103.855 817.521 106.148C818.161 108.442 818.481 111.042 818.481 113.948V148.162Z" fill="white"/>
<path d="M871.081 111.655C868.294 108.268 865.601 105.668 863.014 103.882C860.414 102.095 857.707 101.202 854.867 101.202C852.307 101.202 850.107 101.815 848.281 103.042C846.454 104.282 844.961 105.895 843.801 107.908C842.654 109.922 841.814 112.202 841.281 114.735C840.761 117.268 840.508 119.842 840.508 122.442C840.508 125.242 840.734 127.962 841.174 130.602C841.628 133.255 842.387 135.615 843.467 137.682C844.547 139.748 845.988 141.402 847.774 142.655C849.561 143.908 851.801 144.535 854.481 144.535C855.827 144.535 857.134 144.348 858.401 143.975C859.667 143.602 860.961 142.988 862.308 142.122C863.654 141.268 865.041 140.162 866.481 138.802C867.907 137.442 869.441 135.748 871.081 133.735V111.655ZM877.734 148.162C877.734 148.429 877.694 148.642 877.601 148.829C877.507 149.015 877.334 149.175 877.094 149.282C876.854 149.388 876.548 149.482 876.174 149.535C875.801 149.588 875.334 149.615 874.774 149.615C874.174 149.615 873.681 149.588 873.294 149.535C872.907 149.482 872.587 149.388 872.347 149.282C872.107 149.175 871.921 149.015 871.788 148.829C871.654 148.642 871.588 148.429 871.588 148.162V140.895C868.908 143.802 866.134 146.082 863.254 147.748C860.388 149.402 857.254 150.229 853.867 150.229C850.214 150.229 847.107 149.522 844.534 148.108C841.961 146.695 839.868 144.775 838.241 142.348C836.614 139.922 835.441 137.082 834.694 133.829C833.947 130.562 833.574 127.108 833.574 123.455C833.574 119.162 834.041 115.295 834.974 111.855C835.908 108.402 837.281 105.468 839.108 103.042C840.934 100.628 843.187 98.7617 845.867 97.4551C848.561 96.1484 851.667 95.4952 855.214 95.4952C858.267 95.4952 861.054 96.175 863.601 97.535C866.134 98.895 868.627 100.908 871.081 103.548V73.0816C871.081 72.855 871.134 72.655 871.227 72.4684C871.321 72.2817 871.494 72.135 871.761 72.015C872.014 71.9083 872.361 71.815 872.788 71.735C873.228 71.6684 873.748 71.6285 874.388 71.6285C875.054 71.6285 875.601 71.6684 876.041 71.735C876.468 71.815 876.801 71.9083 877.041 72.015C877.281 72.135 877.454 72.2817 877.574 72.4684C877.681 72.655 877.734 72.855 877.734 73.0816V148.162Z" fill="white"/>
<path d="M960.04 122.948C960.04 120.082 959.76 117.335 959.2 114.735C958.64 112.122 957.707 109.815 956.4 107.829C955.094 105.829 953.347 104.242 951.147 103.068C948.947 101.895 946.214 101.308 942.934 101.308C939.907 101.308 937.307 101.855 935.107 102.935C932.907 104.015 931.107 105.509 929.707 107.429C928.307 109.349 927.28 111.615 926.6 114.229C925.934 116.842 925.6 119.655 925.6 122.668C925.6 125.575 925.88 128.348 926.44 130.975C927 133.602 927.933 135.895 929.227 137.882C930.533 139.855 932.294 141.415 934.48 142.575C936.68 143.735 939.427 144.308 942.707 144.308C945.72 144.308 948.334 143.762 950.534 142.682C952.734 141.602 954.534 140.108 955.934 138.215C957.32 136.308 958.36 134.055 959.027 131.442C959.707 128.842 960.04 126.002 960.04 122.948ZM967.08 122.335C967.08 126.362 966.56 130.068 965.52 133.455C964.467 136.855 962.92 139.802 960.854 142.295C958.774 144.789 956.2 146.735 953.107 148.135C950.014 149.535 946.414 150.229 942.32 150.229C938.36 150.229 934.907 149.602 931.947 148.362C928.974 147.109 926.507 145.322 924.507 142.988C922.507 140.668 921.027 137.842 920.04 134.522C919.04 131.202 918.547 127.455 918.547 123.282C918.547 119.255 919.067 115.549 920.093 112.162C921.12 108.762 922.667 105.828 924.734 103.348C926.8 100.868 929.387 98.9485 932.48 97.5619C935.574 96.1885 939.187 95.4952 943.32 95.4952C947.267 95.4952 950.733 96.1083 953.693 97.3483C956.653 98.575 959.12 100.348 961.093 102.682C963.08 105.015 964.56 107.828 965.574 111.148C966.574 114.468 967.08 118.202 967.08 122.335Z" fill="white"/>
<path d="M1023.04 148.162C1023.04 148.389 1022.99 148.589 1022.88 148.775C1022.77 148.962 1022.59 149.109 1022.35 149.229C1022.11 149.335 1021.77 149.429 1021.35 149.509C1020.91 149.575 1020.39 149.615 1019.75 149.615C1019.08 149.615 1018.53 149.575 1018.09 149.509C1017.67 149.429 1017.33 149.335 1017.09 149.229C1016.85 149.109 1016.67 148.962 1016.56 148.775C1016.45 148.589 1016.4 148.389 1016.4 148.162V118.135C1016.4 115.015 1016.15 112.469 1015.67 110.509C1015.19 108.549 1014.45 106.869 1013.48 105.482C1012.52 104.082 1011.28 103.002 1009.77 102.229C1008.25 101.469 1006.49 101.082 1004.48 101.082C1001.91 101.082 999.347 102.002 996.774 103.829C994.2 105.655 991.494 108.335 988.667 111.882V148.162C988.667 148.389 988.614 148.589 988.494 148.775C988.387 148.962 988.2 149.109 987.96 149.229C987.72 149.335 987.387 149.429 986.96 149.509C986.534 149.575 985.974 149.615 985.307 149.615C984.68 149.615 984.147 149.575 983.72 149.509C983.28 149.429 982.947 149.335 982.68 149.229C982.414 149.109 982.24 148.962 982.147 148.775C982.054 148.589 982.014 148.389 982.014 148.162V97.5621C982.014 97.3488 982.054 97.1352 982.147 96.9486C982.24 96.7619 982.414 96.6019 982.68 96.4819C982.947 96.3486 983.267 96.2553 983.654 96.202C984.054 96.1353 984.56 96.1087 985.2 96.1087C985.827 96.1087 986.347 96.1353 986.76 96.202C987.174 96.2553 987.494 96.3486 987.707 96.4819C987.934 96.6019 988.094 96.7619 988.187 96.9486C988.28 97.1352 988.334 97.3488 988.334 97.5621V104.722C991.24 101.482 994.08 99.1352 996.88 97.6819C999.68 96.2286 1002.45 95.4954 1005.21 95.4954C1008.53 95.4954 1011.32 96.0554 1013.6 97.1754C1015.87 98.2954 1017.71 99.8021 1019.11 101.709C1020.51 103.602 1021.51 105.829 1022.12 108.362C1022.73 110.895 1023.04 113.949 1023.04 117.522V148.162Z" fill="white"/>
<path d="M1091.76 145.148C1091.76 145.934 1091.69 146.561 1091.56 147.041C1091.43 147.534 1091.23 147.908 1090.95 148.188C1090.67 148.468 1090.25 148.734 1089.72 148.974C1089.17 149.214 1088.55 149.414 1087.84 149.588C1087.13 149.761 1086.39 149.881 1085.61 149.974C1084.83 150.068 1084.07 150.121 1083.32 150.121C1080.81 150.121 1078.69 149.788 1076.95 149.108C1075.19 148.441 1073.76 147.428 1072.64 146.068C1071.52 144.708 1070.71 142.988 1070.2 140.895C1069.71 138.801 1069.45 136.348 1069.45 133.521V102.041H1061.91C1061.39 102.041 1060.97 101.801 1060.67 101.334C1060.37 100.868 1060.23 100.174 1060.23 99.2411C1060.23 98.7611 1060.27 98.3344 1060.33 97.9878C1060.41 97.6278 1060.52 97.3345 1060.67 97.0945C1060.83 96.8545 1061 96.6679 1061.2 96.5612C1061.41 96.4412 1061.64 96.3878 1061.91 96.3878H1069.45V83.9745C1069.45 83.7611 1069.49 83.5479 1069.59 83.3612C1069.68 83.1745 1069.87 83.0145 1070.12 82.8945C1070.39 82.7612 1070.73 82.6677 1071.16 82.6143C1071.59 82.5477 1072.12 82.5211 1072.75 82.5211C1073.43 82.5211 1073.97 82.5477 1074.4 82.6143C1074.83 82.6677 1075.16 82.7612 1075.4 82.8945C1075.65 83.0145 1075.83 83.1745 1075.93 83.3612C1076.05 83.5479 1076.11 83.7611 1076.11 83.9745V96.3878H1090.08C1090.35 96.3878 1090.57 96.4412 1090.79 96.5612C1090.99 96.6679 1091.16 96.8545 1091.31 97.0945C1091.47 97.3345 1091.57 97.6278 1091.65 97.9878C1091.72 98.3344 1091.76 98.7611 1091.76 99.2411C1091.76 100.174 1091.6 100.868 1091.28 101.334C1090.96 101.801 1090.56 102.041 1090.08 102.041H1076.11V132.614C1076.11 136.454 1076.65 139.388 1077.76 141.401C1078.85 143.414 1080.85 144.414 1083.76 144.414C1084.65 144.414 1085.47 144.321 1086.2 144.134C1086.92 143.948 1087.56 143.748 1088.12 143.521C1088.68 143.294 1089.16 143.094 1089.55 142.908C1089.95 142.721 1090.28 142.628 1090.59 142.628C1090.77 142.628 1090.93 142.668 1091.09 142.734C1091.24 142.814 1091.36 142.948 1091.45 143.161C1091.55 143.361 1091.61 143.628 1091.68 143.948C1091.73 144.254 1091.76 144.654 1091.76 145.148Z" fill="white"/>
<path d="M1146.04 148.162C1146.04 148.389 1145.99 148.589 1145.88 148.775C1145.76 148.962 1145.59 149.109 1145.35 149.229C1145.11 149.335 1144.77 149.429 1144.35 149.509C1143.91 149.575 1143.39 149.615 1142.75 149.615C1142.08 149.615 1141.53 149.575 1141.09 149.509C1140.67 149.429 1140.33 149.335 1140.09 149.229C1139.85 149.109 1139.67 148.962 1139.56 148.775C1139.45 148.589 1139.39 148.389 1139.39 148.162V118.135C1139.39 115.015 1139.15 112.469 1138.67 110.509C1138.19 108.549 1137.45 106.869 1136.48 105.482C1135.52 104.082 1134.28 103.002 1132.77 102.229C1131.25 101.469 1129.49 101.082 1127.48 101.082C1124.91 101.082 1122.35 102.002 1119.77 103.829C1117.2 105.655 1114.49 108.335 1111.67 111.882V148.162C1111.67 148.389 1111.6 148.589 1111.49 148.775C1111.39 148.962 1111.2 149.109 1110.96 149.229C1110.72 149.335 1110.39 149.429 1109.96 149.509C1109.53 149.575 1108.97 149.615 1108.31 149.615C1107.68 149.615 1107.15 149.575 1106.72 149.509C1106.28 149.429 1105.95 149.335 1105.68 149.229C1105.41 149.109 1105.24 148.962 1105.15 148.775C1105.05 148.589 1105.01 148.389 1105.01 148.162V72.802C1105.01 72.5753 1105.05 72.3753 1105.15 72.1887C1105.24 72.002 1105.41 71.8421 1105.68 71.7087C1105.95 71.5754 1106.28 71.4821 1106.72 71.4288C1107.15 71.3754 1107.68 71.3486 1108.31 71.3486C1108.97 71.3486 1109.53 71.3754 1109.96 71.4288C1110.39 71.4821 1110.72 71.5754 1110.96 71.7087C1111.2 71.8421 1111.39 72.002 1111.49 72.1887C1111.6 72.3753 1111.67 72.5753 1111.67 72.802V104.389C1114.43 101.335 1117.17 99.082 1119.93 97.6553C1122.69 96.2153 1125.45 95.4954 1128.21 95.4954C1131.53 95.4954 1134.32 96.0554 1136.6 97.1754C1138.87 98.2954 1140.71 99.8021 1142.11 101.709C1143.51 103.602 1144.51 105.829 1145.12 108.362C1145.73 110.895 1146.04 113.949 1146.04 117.522V148.162Z" fill="white"/>
<path d="M1198.88 118.308C1198.99 112.935 1197.76 108.748 1195.19 105.735C1192.61 102.708 1188.87 101.202 1183.95 101.202C1181.41 101.202 1179.19 101.682 1177.27 102.629C1175.35 103.575 1173.73 104.828 1172.41 106.402C1171.08 107.962 1170.07 109.788 1169.36 111.855C1168.65 113.922 1168.24 116.068 1168.13 118.308H1198.88ZM1205.76 120.268C1205.76 121.602 1205.4 122.535 1204.69 123.029C1203.99 123.535 1203.29 123.788 1202.63 123.788H1168.13C1168.13 126.922 1168.44 129.748 1169.05 132.282C1169.67 134.815 1170.68 136.988 1172.09 138.802C1173.52 140.602 1175.36 142.002 1177.64 142.962C1179.91 143.935 1182.71 144.415 1186.03 144.415C1188.37 144.415 1190.48 144.215 1192.33 143.802C1194.2 143.388 1195.81 142.935 1197.17 142.429C1198.53 141.935 1199.65 141.468 1200.53 141.068C1201.4 140.655 1202.03 140.442 1202.4 140.442C1202.63 140.442 1202.83 140.508 1203.01 140.615C1203.2 140.735 1203.35 140.908 1203.47 141.148C1203.57 141.388 1203.67 141.695 1203.72 142.068C1203.77 142.442 1203.8 142.908 1203.8 143.468C1203.8 143.735 1203.79 143.975 1203.75 144.229C1203.71 144.469 1203.67 144.682 1203.6 144.895C1203.55 145.095 1203.47 145.295 1203.35 145.482C1203.24 145.668 1203.09 145.855 1202.91 146.042C1202.72 146.228 1202.15 146.548 1201.17 147.015C1200.2 147.482 1198.93 147.948 1197.37 148.415C1195.8 148.882 1193.99 149.295 1191.92 149.668C1189.85 150.042 1187.63 150.229 1185.24 150.229C1181.32 150.229 1177.85 149.642 1174.84 148.468C1171.83 147.295 1169.28 145.562 1167.24 143.268C1165.19 140.975 1163.63 138.135 1162.57 134.748C1161.51 131.348 1160.97 127.415 1160.97 122.948C1160.97 118.668 1161.52 114.829 1162.63 111.429C1163.72 108.042 1165.29 105.162 1167.35 102.788C1169.4 100.428 1171.87 98.6151 1174.76 97.3751C1177.64 96.1218 1180.85 95.4952 1184.4 95.4952C1188.2 95.4952 1191.44 96.135 1194.13 97.4017C1196.81 98.6684 1199.01 100.375 1200.75 102.508C1202.48 104.655 1203.76 107.148 1204.56 109.975C1205.36 112.815 1205.76 115.788 1205.76 118.922V120.268Z" fill="white"/>
<path d="M618.414 290.975C617.534 295.162 616.134 298.962 614.254 302.268C612.441 305.442 610.067 308.042 607.201 309.975C604.414 311.868 601.121 312.788 597.134 312.788C592.774 312.788 588.694 311.402 584.654 308.535C580.587 305.655 576.241 301.468 571.734 296.108V259.348C574.241 256.268 576.641 253.642 578.907 251.522C581.334 249.255 583.667 247.388 585.881 245.988C588.001 244.628 590.081 243.655 592.067 243.068C594.067 242.495 596.134 242.202 598.214 242.202C602.334 242.202 605.734 243.122 608.361 244.935C611.081 246.828 613.294 249.402 614.934 252.575C616.667 255.908 617.907 259.775 618.641 264.095C619.401 268.535 619.787 273.229 619.787 278.029C619.787 282.349 619.321 286.695 618.414 290.975ZM635.787 257.375C634.441 251.388 632.214 246.042 629.174 241.508C626.081 236.882 622.014 233.175 617.094 230.508C612.174 227.828 606.187 226.468 599.307 226.468C596.134 226.468 593.081 226.828 590.241 227.535C587.401 228.255 584.574 229.362 581.881 230.855C579.241 232.322 576.574 234.162 573.961 236.335C572.921 237.188 571.854 238.122 570.747 239.122V226.468H554.334V360.148H571.734V318.068C572.521 318.762 573.294 319.402 574.041 320.015C576.361 321.895 578.734 323.482 581.067 324.735C583.481 326.028 585.974 327.002 588.494 327.602C591.001 328.215 593.707 328.522 596.547 328.522C603.121 328.522 609.067 327.242 614.227 324.735C619.401 322.228 623.801 318.615 627.307 314.015C630.761 309.482 633.401 303.922 635.174 297.482C636.907 291.175 637.774 284.002 637.774 276.162C637.774 269.549 637.107 263.242 635.787 257.375Z" fill="white"/>
<path d="M723.135 290.975C722.255 295.162 720.855 298.962 718.975 302.268C717.175 305.442 714.801 308.042 711.935 309.975C709.135 311.868 705.841 312.788 701.868 312.788C697.508 312.788 693.428 311.402 689.388 308.535C685.308 305.655 680.975 301.468 676.468 296.108V259.348C678.961 256.268 681.375 253.642 683.628 251.522C686.055 249.255 688.401 247.388 690.601 245.988C692.721 244.628 694.801 243.655 696.801 243.068C698.788 242.495 700.868 242.202 702.948 242.202C707.055 242.202 710.468 243.122 713.081 244.935C715.801 246.828 718.015 249.402 719.655 252.575C721.388 255.908 722.628 259.775 723.375 264.095C724.121 268.535 724.508 273.229 724.508 278.029C724.508 282.349 724.041 286.695 723.135 290.975ZM740.521 257.375C739.161 251.388 736.935 246.042 733.908 241.508C730.801 236.882 726.735 233.175 721.828 230.508C716.895 227.828 710.908 226.468 704.028 226.468C700.855 226.468 697.815 226.828 694.975 227.535C692.121 228.255 689.308 229.362 686.601 230.855C683.975 232.322 681.308 234.162 678.681 236.335C677.641 237.188 676.575 238.122 675.481 239.122V226.468H659.055V360.148H676.468V318.068C677.241 318.762 678.015 319.415 678.761 320.015C681.095 321.895 683.455 323.482 685.801 324.735C688.201 326.028 690.695 327.002 693.215 327.602C695.721 328.215 698.441 328.522 701.268 328.522C707.841 328.522 713.801 327.242 718.961 324.735C724.121 322.228 728.535 318.615 732.028 314.015C735.495 309.482 738.135 303.922 739.895 297.482C741.628 291.175 742.508 284.002 742.508 276.162C742.508 269.549 741.841 263.228 740.521 257.375Z" fill="white"/>
<path d="M1031.29 277.642C1031.29 282.762 1030.73 287.548 1029.61 291.895C1028.53 296.108 1026.85 299.788 1024.61 302.828C1022.44 305.788 1019.6 308.135 1016.16 309.828C1012.69 311.535 1008.48 312.388 1003.64 312.388C998.361 312.388 993.934 311.481 990.494 309.668C987.067 307.868 984.307 305.415 982.294 302.348C980.201 299.188 978.681 295.428 977.774 291.175C976.841 286.762 976.361 282.041 976.361 277.148C976.361 272.095 976.934 267.335 978.041 263.001C979.134 258.775 980.814 255.081 983.054 252.001C985.228 249.015 988.068 246.655 991.508 244.962C994.961 243.268 999.174 242.401 1004.03 242.401C1009.31 242.401 1013.72 243.335 1017.16 245.162C1020.59 246.988 1023.35 249.482 1025.36 252.575C1027.45 255.775 1028.99 259.548 1029.88 263.775C1030.83 268.148 1031.29 272.815 1031.29 277.642ZM1038.19 240.121C1034.43 235.695 1029.68 232.268 1024.07 229.935C1018.53 227.628 1012.01 226.468 1004.72 226.468C997.068 226.468 990.254 227.775 984.468 230.362C978.641 232.948 973.708 236.641 969.801 241.321C965.934 245.961 963.001 251.508 961.094 257.828C959.214 264.028 958.268 270.895 958.268 278.228C958.268 285.828 959.188 292.748 961.001 298.828C962.841 305.028 965.681 310.388 969.441 314.775C973.214 319.202 977.974 322.641 983.588 325.001C989.121 327.335 995.641 328.521 1002.95 328.521C1010.53 328.521 1017.32 327.202 1023.12 324.575C1028.93 321.948 1033.87 318.228 1037.77 313.508C1041.63 308.842 1044.57 303.281 1046.52 296.988C1048.43 290.775 1049.4 283.895 1049.4 276.562C1049.4 269.028 1048.47 262.135 1046.61 256.042C1044.73 249.868 1041.91 244.508 1038.19 240.121Z" fill="white"/>
<path d="M463.254 275.189L483.347 217.909L503.92 275.189H463.254ZM494.293 197.815H473.6L430.467 328.322H448.12L457.72 290.922H509.6L519.547 328.322H537.427L494.293 197.815Z" fill="white"/>
<path d="M878.854 275.401C877.001 271.455 874.521 267.961 871.454 265.015C868.468 262.135 865.041 259.602 861.281 257.495C857.654 255.468 853.921 253.548 850.174 251.788C846.494 250.068 842.828 248.308 839.281 246.588C835.894 244.935 832.828 243.068 830.174 241.028C827.641 239.095 825.601 236.841 824.081 234.335C822.654 231.975 821.934 229.068 821.934 225.668C821.934 223.348 822.347 221.122 823.161 219.028C823.974 216.988 825.147 215.242 826.761 213.708C828.361 212.188 830.454 210.948 832.961 210.042C835.521 209.108 838.601 208.642 842.121 208.642C845.748 208.642 849.014 209.081 851.814 209.935C854.708 210.828 857.227 211.841 859.294 212.935C861.441 214.068 863.241 215.108 864.641 216.015L871.841 200.975C870.988 200.122 869.561 199.188 867.308 198.001C865.254 196.921 862.894 195.935 860.294 195.068C857.721 194.215 854.961 193.495 852.094 192.948C849.187 192.401 846.254 192.121 843.401 192.121C837.748 192.121 832.468 192.895 827.721 194.415C822.881 195.975 818.668 198.255 815.174 201.201C811.654 204.188 808.881 207.868 806.948 212.148C805.014 216.401 804.041 221.255 804.041 226.562C804.041 232.002 804.988 236.815 806.854 240.855C808.708 244.815 811.174 248.335 814.201 251.281C817.148 254.161 820.534 256.708 824.268 258.855C827.854 260.908 831.588 262.855 835.348 264.615C839.014 266.335 842.668 268.095 846.174 269.815C849.534 271.468 852.574 273.321 855.201 275.321C857.694 277.228 859.721 279.468 861.241 281.975C862.668 284.322 863.388 287.241 863.388 290.628C863.388 294.015 862.788 297.055 861.614 299.655C860.454 302.228 858.814 304.415 856.721 306.161C854.588 307.961 852.001 309.348 849.014 310.321C845.974 311.308 842.561 311.801 838.868 311.801C834.254 311.801 830.188 311.268 826.774 310.201C823.228 309.108 820.174 307.908 817.668 306.642C815.134 305.362 813.054 304.175 811.494 303.095L807.908 321.121C809.961 322.268 812.494 323.402 815.441 324.508C818.374 325.602 821.761 326.548 825.494 327.335C829.281 328.121 833.348 328.521 837.588 328.521C843.841 328.521 849.694 327.641 855.001 325.921C860.388 324.175 865.121 321.588 869.054 318.255C873.041 314.868 876.174 310.721 878.374 305.895C880.561 301.081 881.681 295.575 881.681 289.548C881.681 284.162 880.734 279.401 878.854 275.401Z" fill="white"/>
<path d="M938.894 311.216C938.027 311.562 937 311.896 935.854 312.189C934.814 312.456 933.6 312.589 932.28 312.589C926.907 312.589 925.094 310.402 924.2 308.762C922.494 305.656 921.64 300.909 921.64 294.669V243.682H942.814V228.042H921.64V209.042L904.227 216.709V228.042H894.787V243.682H904.227V296.242C904.227 301.429 904.707 306.029 905.64 309.909C906.627 313.989 908.254 317.429 910.494 320.149C912.774 322.922 915.72 325.016 919.254 326.362C922.64 327.669 926.76 328.322 931.494 328.322C932.907 328.322 934.374 328.229 935.867 328.056C937.334 327.882 938.774 327.629 940.12 327.309C941.534 326.976 942.814 326.549 943.92 326.056L941.24 310.216C940.614 310.509 939.827 310.842 938.894 311.216Z" fill="white"/>
<path d="M1109.48 226.482C1109.23 226.469 1108.99 226.469 1108.75 226.469C1106.56 226.469 1104.4 226.722 1102.32 227.242C1100.15 227.776 1097.92 228.776 1095.68 230.229C1093.53 231.629 1091.28 233.576 1088.96 236.016C1088.27 236.762 1087.55 237.589 1086.8 238.482V226.469H1069.99V328.322H1087.39V262.615C1089.67 259.002 1091.77 255.882 1093.65 253.362C1095.61 250.776 1097.47 248.682 1099.19 247.136C1100.83 245.669 1102.37 244.602 1103.8 243.976C1105.16 243.376 1106.48 243.082 1107.87 243.082C1108.27 243.082 1108.69 243.109 1109.2 243.136L1112.25 243.362V226.549L1109.48 226.482Z" fill="white"/>
<path d="M1144.38 259.028C1145.51 255.735 1147.13 252.815 1149.23 250.348C1151.28 247.908 1153.86 245.908 1156.87 244.415C1159.84 242.948 1163.38 242.201 1167.38 242.201C1175.23 242.201 1180.99 244.482 1184.99 249.175C1188.59 253.402 1190.54 259.255 1190.79 266.628H1142.63C1142.95 264.015 1143.54 261.468 1144.38 259.028ZM1196.61 306.401C1196.21 306.561 1195.8 306.735 1195.35 306.948C1193.88 307.642 1191.98 308.415 1189.67 309.268C1187.4 310.108 1184.67 310.882 1181.52 311.575C1178.46 312.242 1174.92 312.588 1171.01 312.588C1165.59 312.588 1161 311.801 1157.36 310.255C1153.83 308.748 1150.93 306.575 1148.75 303.788C1146.52 300.948 1144.9 297.455 1143.91 293.401C1143.07 289.961 1142.57 286.122 1142.41 281.962H1200.24C1202.03 281.962 1203.8 281.335 1205.54 280.108C1207.58 278.668 1208.6 276.241 1208.6 272.921V270.562C1208.6 264.802 1207.86 259.242 1206.39 254.028C1204.87 248.695 1202.44 243.935 1199.16 239.881C1195.85 235.788 1191.59 232.495 1186.51 230.081C1181.42 227.681 1175.24 226.468 1168.16 226.468C1161.56 226.468 1155.47 227.655 1150.06 230.001C1144.6 232.361 1139.87 235.815 1135.99 240.295C1132.15 244.735 1129.16 250.175 1127.11 256.481C1125.1 262.721 1124.07 269.828 1124.07 277.642C1124.07 285.762 1125.06 293.041 1127 299.268C1128.99 305.601 1131.96 311.001 1135.81 315.321C1139.72 319.668 1144.59 323.001 1150.29 325.228C1155.92 327.415 1162.43 328.521 1169.64 328.521C1173.99 328.521 1178.11 328.175 1181.91 327.495C1185.63 326.815 1188.96 326.055 1191.8 325.201C1193.63 324.668 1195.23 324.122 1196.61 323.575V306.401Z" fill="white"/>
</svg>
