<svg width="1444" height="436" viewBox="0 0 1444 436" fill="none" xmlns="http://www.w3.org/2000/svg">
<g clip-path="url(#clip0_102_416)">
<path d="M1360 0.500679H83.3787C37.3307 0.500679 0 37.8341 0 83.8874V351.234C0 397.287 37.3307 434.607 83.3787 434.607H1360C1406.04 434.607 1443.38 397.287 1443.38 351.234V83.8874C1443.38 37.8341 1406.04 0.500679 1360 0.500679Z" fill="white"/>
<path d="M326.355 177.662L287.503 216.248L173.445 100.128C179.167 96.6749 186.621 96.128 193.217 99.9814L326.355 177.662Z" fill="#00F076"/>
<path d="M327.306 256.901L193.217 335.141C185.198 339.821 175.908 337.995 170.012 332.368L287.498 216.248L327.306 256.901Z" fill="#F73448"/>
<path d="M366.056 234.3L327.613 256.727L327.308 256.9L287.504 216.247L326.356 177.661L326.656 177.834L366.056 200.82C378.873 208.3 378.873 226.82 366.056 234.3Z" fill="#FFCA00"/>
<path d="M170.012 332.367C169.93 332.301 169.849 332.221 169.768 332.141C166.301 328.714 164.07 323.941 164.07 318.394V116.714C164.07 109.527 167.821 103.634 173.15 100.3C173.249 100.247 173.346 100.181 173.445 100.127L287.502 216.247L170.012 332.367Z" fill="#00D2FF"/>
<path d="M595.167 245.022H579.639H539.394V260.475H578.501C573.819 277.675 558.086 290.342 539.394 290.342C517.01 290.342 498.865 272.195 498.865 249.808C498.865 227.422 517.01 209.275 539.394 209.275C549.974 209.275 559.606 213.342 566.823 219.982L577.757 209.048C567.737 199.608 554.241 193.835 539.394 193.835C508.477 193.835 483.414 218.888 483.414 249.808C483.414 280.728 508.477 305.795 539.394 305.795C570.31 305.795 595.373 280.728 595.373 249.808C595.373 248.195 595.301 246.595 595.167 245.022Z" fill="black"/>
<path d="M639.223 291.194C628.403 291.194 619.631 281.727 619.631 270.047C619.631 258.367 628.403 248.9 639.223 248.9C650.044 248.9 658.816 258.367 658.816 270.047C658.816 281.727 650.044 291.194 639.223 291.194ZM639.223 233.447C619.452 233.447 603.426 249.58 603.426 269.474C603.426 289.38 619.452 305.514 639.223 305.514C658.995 305.514 675.022 289.38 675.022 269.474C675.022 249.58 658.995 233.447 639.223 233.447Z" fill="black"/>
<path d="M718.869 291.194C708.049 291.194 699.276 281.727 699.276 270.047C699.276 258.367 708.049 248.9 718.869 248.9C729.69 248.9 738.462 258.367 738.462 270.047C738.462 281.727 729.69 291.194 718.869 291.194ZM718.869 233.447C699.098 233.447 683.07 249.58 683.07 269.474C683.07 289.38 699.098 305.514 718.869 305.514C738.64 305.514 754.668 289.38 754.668 269.474C754.668 249.58 738.64 233.447 718.869 233.447Z" fill="black"/>
<path d="M852.507 193.835V306.941H837.055V193.835H852.507Z" fill="black"/>
<path d="M911.184 253.795L876.081 267.541C876.288 265.328 876.851 263.128 877.768 261.034C880.024 255.874 884.155 251.901 889.399 249.848C891.896 248.861 894.493 248.395 897.065 248.395C902.232 248.395 907.289 250.301 911.184 253.795ZM916.033 278.728C913.711 283.488 909.712 287.181 904.776 289.114C899.532 291.168 893.801 291.048 888.641 288.794C885.356 287.368 882.552 285.168 880.419 282.408L932.907 261.848L932.095 259.114C931.795 258.114 931.453 257.114 931.081 256.168C927.525 247.088 920.647 239.928 911.711 236.021C902.776 232.114 892.855 231.928 883.775 235.488C874.693 239.034 867.541 245.914 863.636 254.848C859.729 263.794 859.536 273.715 863.092 282.795C866.648 291.875 873.528 299.021 882.463 302.928C887.151 304.981 892.111 306.008 897.077 306.008C901.577 306.008 906.084 305.168 910.4 303.474C919.095 300.074 926.083 293.541 930.079 285.114L931.447 282.221L917.337 276.048L916.033 278.728Z" fill="black"/>
<path d="M795.16 291.195C785.355 291.195 777.404 281.728 777.404 270.048C777.404 258.368 785.355 248.902 795.16 248.902C804.967 248.902 812.916 258.368 812.916 270.048C812.916 281.728 804.967 291.195 795.16 291.195ZM813.552 233.448V239.795C808.325 235.795 801.989 233.448 795.16 233.448C777.244 233.448 762.719 249.582 762.719 269.475C762.719 289.382 777.244 305.515 795.16 305.515C801.989 305.515 808.325 303.168 813.552 299.168V306.942C813.552 311.382 810.347 323.755 795.769 323.755C781.191 323.755 777.087 310.715 777.087 310.715L763.081 317.249C763.081 317.249 768.348 337.809 797.157 337.809C812.763 337.809 820.805 328.755 824.901 320.449C827.676 314.822 829.004 308.595 829.004 302.315V233.448H813.552Z" fill="black"/>
<path d="M1001.89 193.835V306.941H986.441V193.835H1001.89Z" fill="black"/>
<path d="M1023.53 193.834V209.274C1034.34 209.274 1043.11 218.754 1043.11 230.434C1043.11 242.114 1034.34 251.58 1023.53 251.58V265.9C1043.3 265.9 1059.33 249.767 1059.33 229.861C1059.33 209.967 1043.3 193.834 1023.53 193.834Z" fill="black"/>
<path d="M997.57 209.275H1023.52V193.835H997.57V209.275Z" fill="black"/>
<path d="M997.57 265.9H1023.52V251.58H997.57V265.9Z" fill="black"/>
<path d="M1082.82 193.835V306.941H1067.37V193.835H1082.82Z" fill="black"/>
<path d="M1125.22 292.901C1122.88 294.314 1120.3 295.034 1117.52 295.034C1114.19 295.034 1111.52 294.154 1109.6 292.408C1107.64 290.648 1106.64 288.208 1106.64 285.168C1106.64 283.394 1106.99 281.794 1107.67 280.408C1108.36 278.994 1109.46 277.781 1110.92 276.808C1112.35 275.848 1114.2 275.141 1116.43 274.674C1118.59 274.221 1121.22 273.994 1124.24 273.994H1132.35V286.608L1132.08 286.914C1129.78 289.514 1127.47 291.528 1125.22 292.901ZM1133.31 297.061L1135.2 295.021V305.848H1148.22V259.168C1148.22 254.821 1147.68 251.021 1146.66 247.888C1145.66 244.821 1144.04 242.301 1141.86 240.368C1139.66 238.421 1136.79 236.954 1133.35 235.994C1129.83 235.034 1125.51 234.541 1120.52 234.541C1117.72 234.541 1114.98 234.768 1112.34 235.221C1109.7 235.674 1107.23 236.261 1105 236.968C1103.07 237.594 1101.32 238.261 1099.82 238.968L1100.64 251.208C1101.59 250.728 1102.67 250.221 1103.86 249.688C1105.75 248.834 1107.95 248.061 1110.4 247.368C1112.9 246.661 1115.76 246.301 1118.91 246.301C1121.35 246.301 1123.44 246.568 1125.12 247.088C1126.88 247.621 1128.32 248.488 1129.4 249.648C1130.47 250.794 1131.24 252.248 1131.7 253.941C1132.14 255.568 1132.35 257.474 1132.35 259.594V264.634H1124.91C1119.2 264.634 1114.14 265.074 1109.86 265.928C1105.62 266.781 1102.04 268.101 1099.22 269.848C1096.46 271.554 1094.35 273.754 1092.96 276.368C1091.56 278.994 1090.86 282.154 1090.86 285.754C1090.86 289.088 1091.42 292.034 1092.52 294.514C1093.62 296.981 1095.18 299.074 1097.15 300.728C1099.15 302.408 1101.56 303.688 1104.3 304.541C1107.08 305.408 1110.18 305.848 1113.51 305.848C1117.51 305.848 1121.2 305.061 1124.48 303.541C1127.76 301.994 1130.74 299.821 1133.31 297.061Z" fill="black"/>
<path d="M1209.56 234.662L1198.27 260.768L1191.34 276.835L1186.63 265.955L1173.1 234.662H1156.26L1178.22 285.422L1183.11 296.742L1170.36 327.875H1187.2L1198.28 299.702L1206.7 280.235L1226.4 234.662H1209.56Z" fill="black"/>
<path d="M577.181 151.715C577.181 152.089 577.151 152.422 577.094 152.702C577.035 152.996 576.941 153.235 576.812 153.449C576.682 153.649 576.531 153.796 576.358 153.902C576.185 153.996 575.997 154.049 575.795 154.049H549.569C549.05 154.049 548.515 153.849 547.967 153.462C547.419 153.076 547.145 152.355 547.145 151.315V100.769C547.145 99.7289 547.419 99.0222 547.967 98.6355C548.515 98.2355 549.05 98.0488 549.569 98.0488H575.406C575.607 98.0488 575.795 98.1024 575.969 98.1957C576.142 98.3024 576.286 98.4488 576.401 98.6488C576.517 98.8488 576.602 99.1023 576.661 99.409C576.718 99.7156 576.747 100.062 576.747 100.476C576.747 100.849 576.718 101.182 576.661 101.462C576.602 101.756 576.517 101.995 576.401 102.182C576.286 102.369 576.142 102.516 575.969 102.609C575.795 102.716 575.607 102.769 575.406 102.769H552.424V122.449H572.246C572.478 122.449 572.679 122.502 572.853 122.609C573.026 122.702 573.17 122.849 573.285 123.036C573.399 123.222 573.486 123.476 573.545 123.769C573.602 124.076 573.631 124.436 573.631 124.836C573.631 125.209 573.602 125.529 573.545 125.809C573.486 126.089 573.399 126.302 573.285 126.476C573.17 126.649 573.026 126.782 572.853 126.876C572.679 126.956 572.478 126.996 572.246 126.996H552.424V149.329H575.795C575.997 149.329 576.185 149.382 576.358 149.489C576.531 149.582 576.682 149.729 576.812 149.915C576.941 150.102 577.035 150.342 577.094 150.649C577.151 150.955 577.181 151.302 577.181 151.715Z" fill="black"/>
<path d="M624.394 100.474C624.394 100.848 624.365 101.181 624.307 101.461C624.25 101.754 624.163 101.994 624.047 102.181C623.933 102.367 623.788 102.514 623.615 102.608C623.442 102.714 623.254 102.767 623.053 102.767H606.347V153.181C606.347 153.354 606.303 153.514 606.217 153.661C606.131 153.808 605.986 153.914 605.784 154.008C605.582 154.088 605.308 154.167 604.962 154.221C604.616 154.274 604.198 154.301 603.707 154.301C603.217 154.301 602.798 154.274 602.453 154.221C602.106 154.167 601.831 154.088 601.63 154.008C601.427 153.914 601.283 153.808 601.197 153.661C601.11 153.514 601.067 153.354 601.067 153.181V102.767H584.362C584.13 102.767 583.935 102.714 583.778 102.608C583.619 102.514 583.481 102.367 583.366 102.181C583.251 101.994 583.165 101.754 583.107 101.461C583.049 101.181 583.02 100.848 583.02 100.474C583.02 100.061 583.049 99.7142 583.107 99.4075C583.165 99.1009 583.251 98.8474 583.366 98.6474C583.481 98.4474 583.619 98.3009 583.778 98.1943C583.935 98.1009 584.13 98.0474 584.362 98.0474H623.053C623.254 98.0474 623.442 98.1009 623.615 98.1943C623.788 98.3009 623.933 98.4474 624.047 98.6474C624.163 98.8474 624.25 99.1009 624.307 99.4075C624.365 99.7142 624.394 100.061 624.394 100.474Z" fill="black"/>
<path d="M658.628 153.181C658.628 153.354 658.585 153.514 658.498 153.661C658.412 153.808 658.266 153.914 658.065 154.008C657.864 154.088 657.596 154.168 657.265 154.221C656.933 154.274 656.506 154.301 655.988 154.301C655.497 154.301 655.078 154.274 654.733 154.221C654.386 154.168 654.112 154.088 653.91 154.008C653.708 153.914 653.564 153.808 653.477 153.661C653.39 153.514 653.348 153.354 653.348 153.181V98.9141C653.348 98.7407 653.397 98.5808 653.5 98.4341C653.6 98.2875 653.758 98.1808 653.976 98.0875C654.192 98.0075 654.466 97.9276 654.797 97.8742C655.129 97.8209 655.526 97.7807 655.988 97.7807C656.506 97.7807 656.933 97.8209 657.265 97.8742C657.596 97.9276 657.864 98.0075 658.065 98.0875C658.266 98.1808 658.412 98.2875 658.498 98.4341C658.585 98.5808 658.628 98.7407 658.628 98.9141V153.181Z" fill="black"/>
<path d="M708.918 100.474C708.918 100.848 708.888 101.181 708.831 101.461C708.772 101.754 708.686 101.994 708.571 102.181C708.456 102.367 708.312 102.514 708.139 102.608C707.966 102.714 707.778 102.767 707.576 102.767H690.871V153.181C690.871 153.354 690.827 153.514 690.74 153.661C690.654 153.808 690.51 153.914 690.308 154.008C690.106 154.088 689.832 154.167 689.486 154.221C689.139 154.274 688.722 154.301 688.231 154.301C687.739 154.301 687.322 154.274 686.975 154.221C686.63 154.167 686.355 154.088 686.154 154.008C685.951 153.914 685.807 153.808 685.72 153.661C685.634 153.514 685.591 153.354 685.591 153.181V102.767H668.886C668.654 102.767 668.459 102.714 668.302 102.608C668.143 102.514 668.004 102.367 667.89 102.181C667.775 101.994 667.688 101.754 667.63 101.461C667.572 101.181 667.543 100.848 667.543 100.474C667.543 100.061 667.572 99.7142 667.63 99.4075C667.688 99.1009 667.775 98.8474 667.89 98.6474C668.004 98.4474 668.143 98.3009 668.302 98.1943C668.459 98.1009 668.654 98.0474 668.886 98.0474H707.576C707.778 98.0474 707.966 98.1009 708.139 98.1943C708.312 98.3009 708.456 98.4474 708.571 98.6474C708.686 98.8474 708.772 99.1009 708.831 99.4075C708.888 99.7142 708.918 100.061 708.918 100.474Z" fill="black"/>
<path d="M777.294 125.875C777.294 122.555 776.984 119.448 776.364 116.541C775.743 113.648 774.72 111.128 773.291 108.968C771.863 106.821 769.965 105.141 767.6 103.915C765.235 102.688 762.305 102.075 758.815 102.075C755.352 102.075 752.431 102.715 750.051 103.995C747.671 105.275 745.737 107.008 744.252 109.168C742.765 111.328 741.699 113.861 741.049 116.741C740.4 119.635 740.075 122.675 740.075 125.875C740.075 129.275 740.371 132.448 740.963 135.368C741.553 138.301 742.556 140.848 743.971 143.008C745.383 145.181 747.273 146.875 749.64 148.101C752.005 149.328 754.963 149.941 758.512 149.941C762.032 149.941 764.988 149.275 767.384 147.968C769.779 146.648 771.712 144.901 773.183 142.688C774.655 140.475 775.708 137.928 776.343 135.035C776.976 132.128 777.294 129.075 777.294 125.875ZM782.92 125.395C782.92 129.875 782.408 133.915 781.384 137.541C780.36 141.155 778.824 144.248 776.775 146.795C774.727 149.355 772.144 151.315 769.028 152.701C765.912 154.088 762.277 154.781 758.123 154.781C753.968 154.781 750.397 154.128 747.411 152.808C744.424 151.501 741.972 149.621 740.053 147.195C738.135 144.755 736.721 141.768 735.812 138.248C734.904 134.728 734.449 130.768 734.449 126.355C734.449 121.968 734.953 117.981 735.964 114.408C736.973 110.835 738.509 107.781 740.573 105.248C742.635 102.728 745.217 100.768 748.32 99.3813C751.42 98.0079 755.064 97.3146 759.248 97.3146C763.316 97.3146 766.836 97.9548 769.807 99.2615C772.779 100.555 775.239 102.421 777.187 104.835C779.133 107.261 780.576 110.208 781.515 113.675C782.451 117.128 782.92 121.035 782.92 125.395Z" fill="black"/>
<path d="M836.069 151.501C836.069 152.007 835.989 152.448 835.83 152.794C835.671 153.141 835.469 153.421 835.225 153.634C834.979 153.847 834.705 154.008 834.402 154.088C834.099 154.181 833.818 154.221 833.558 154.221H832.477C831.898 154.221 831.373 154.154 830.897 154.008C830.421 153.861 829.959 153.607 829.511 153.247C829.063 152.887 828.617 152.408 828.17 151.794C827.722 151.194 827.225 150.408 826.677 149.461L806.942 114.488C805.961 112.794 804.973 111.034 803.978 109.234C802.982 107.434 802.037 105.674 801.143 103.981H801.099C801.127 106.074 801.143 108.234 801.143 110.447C801.143 112.647 801.143 114.807 801.143 116.914V153.181C801.143 153.354 801.099 153.514 801.013 153.661C800.926 153.808 800.782 153.914 800.581 154.008C800.378 154.088 800.11 154.168 799.779 154.221C799.447 154.274 799.022 154.301 798.503 154.301C798.011 154.301 797.594 154.274 797.247 154.221C796.902 154.168 796.627 154.088 796.426 154.008C796.223 153.914 796.079 153.808 795.993 153.661C795.906 153.514 795.863 153.354 795.863 153.181V100.767C795.863 99.7275 796.137 99.0208 796.685 98.6341C797.233 98.2341 797.767 98.0474 798.286 98.0474H800.45C801.143 98.0474 801.719 98.1008 802.182 98.2208C802.642 98.3275 803.062 98.5276 803.437 98.8076C803.811 99.0742 804.179 99.4608 804.541 99.9675C804.901 100.474 805.298 101.114 805.73 101.901L820.834 128.688C821.786 130.368 822.689 131.967 823.539 133.514C824.39 135.061 825.219 136.568 826.027 138.061C826.835 139.541 827.635 141.007 828.43 142.447C829.223 143.887 830.01 145.354 830.789 146.821H830.831C830.803 144.394 830.789 141.874 830.789 139.247C830.789 136.621 830.789 134.101 830.789 131.674V99.0875C830.789 98.9142 830.831 98.7542 830.918 98.6076C831.005 98.4609 831.149 98.3408 831.351 98.2341C831.553 98.1408 831.819 98.0608 832.151 98.0208C832.483 97.9808 832.909 97.9542 833.429 97.9542C833.89 97.9542 834.294 97.9808 834.641 98.0208C834.986 98.0608 835.261 98.1408 835.462 98.2341C835.663 98.3408 835.815 98.4609 835.917 98.6076C836.018 98.7542 836.069 98.9142 836.069 99.0875V151.501Z" fill="black"/>
<path d="M483.414 126.008C483.414 141.115 495.705 153.408 510.813 153.408C525.921 153.408 538.213 141.115 538.213 126.008C538.213 125.622 538.203 125.235 538.187 124.848H512.107V130.168H532.553L532.107 131.808C529.502 141.382 520.746 148.075 510.813 148.075C498.645 148.075 488.745 138.168 488.745 126.008C488.745 113.835 498.645 103.942 510.813 103.942C515.946 103.942 520.87 105.702 524.811 108.942L528.595 105.155C523.638 100.928 517.374 98.6082 510.813 98.6082C495.705 98.6082 483.414 110.902 483.414 126.008Z" fill="black"/>
</g>
<defs>
<clipPath id="clip0_102_416">
<rect width="1444" height="435" fill="white" transform="translate(0 0.5)"/>
</clipPath>
</defs>
</svg>
