<svg width="1444" height="435" viewBox="0 0 1444 435" fill="none" xmlns="http://www.w3.org/2000/svg">
<path d="M1360 0.000676916H83.3787C37.3307 0.000676916 0 37.3341 0 83.3874V350.734C0 396.787 37.3307 434.107 83.3787 434.107H1360C1406.04 434.107 1443.38 396.787 1443.38 350.734V83.3874C1443.38 37.3341 1406.04 0.000676916 1360 0.000676916Z" fill="#191919"/>
<path d="M326.355 177.162L287.503 215.748L173.445 99.6282C179.167 96.1749 186.621 95.628 193.217 99.4814L326.355 177.162Z" fill="#00F076"/>
<path d="M327.306 256.401L193.217 334.641C185.198 339.321 175.908 337.495 170.012 331.868L287.498 215.748L327.306 256.401Z" fill="#F73448"/>
<path d="M366.054 233.8L327.611 256.227L327.306 256.4L287.502 215.747L326.354 177.161L326.654 177.334L366.054 200.32C378.871 207.8 378.871 226.32 366.054 233.8Z" fill="#FFCA00"/>
<path d="M170.012 331.867C169.93 331.801 169.849 331.721 169.768 331.641C166.301 328.214 164.07 323.441 164.07 317.894V116.214C164.07 109.027 167.821 103.134 173.15 99.8005C173.249 99.7472 173.346 99.6807 173.445 99.6274L287.502 215.747L170.012 331.867Z" fill="#00D2FF"/>
<path d="M595.167 244.522H579.639H539.394V259.975H578.501C573.819 277.175 558.086 289.842 539.394 289.842C517.01 289.842 498.865 271.695 498.865 249.308C498.865 226.922 517.01 208.775 539.394 208.775C549.974 208.775 559.606 212.842 566.823 219.482L577.757 208.548C567.737 199.108 554.241 193.335 539.394 193.335C508.477 193.335 483.414 218.388 483.414 249.308C483.414 280.228 508.477 305.295 539.394 305.295C570.31 305.295 595.373 280.228 595.373 249.308C595.373 247.695 595.301 246.095 595.167 244.522Z" fill="white"/>
<path d="M639.223 290.694C628.403 290.694 619.631 281.227 619.631 269.547C619.631 257.867 628.403 248.4 639.223 248.4C650.044 248.4 658.816 257.867 658.816 269.547C658.816 281.227 650.044 290.694 639.223 290.694ZM639.223 232.947C619.452 232.947 603.426 249.08 603.426 268.974C603.426 288.88 619.452 305.014 639.223 305.014C658.995 305.014 675.022 288.88 675.022 268.974C675.022 249.08 658.995 232.947 639.223 232.947Z" fill="white"/>
<path d="M718.871 290.694C708.051 290.694 699.278 281.227 699.278 269.547C699.278 257.867 708.051 248.4 718.871 248.4C729.692 248.4 738.464 257.867 738.464 269.547C738.464 281.227 729.692 290.694 718.871 290.694ZM718.871 232.947C699.1 232.947 683.072 249.08 683.072 268.974C683.072 288.88 699.1 305.014 718.871 305.014C738.642 305.014 754.67 288.88 754.67 268.974C754.67 249.08 738.642 232.947 718.871 232.947Z" fill="white"/>
<path d="M852.507 193.335V306.441H837.055V193.335H852.507Z" fill="white"/>
<path d="M911.184 253.295L876.081 267.041C876.288 264.828 876.851 262.628 877.768 260.534C880.024 255.374 884.155 251.401 889.399 249.348C891.896 248.361 894.493 247.895 897.065 247.895C902.232 247.895 907.289 249.801 911.184 253.295ZM916.033 278.228C913.711 282.988 909.712 286.681 904.776 288.614C899.532 290.668 893.801 290.548 888.641 288.294C885.356 286.868 882.552 284.668 880.419 281.908L932.907 261.348L932.095 258.614C931.795 257.614 931.453 256.614 931.081 255.668C927.525 246.588 920.647 239.428 911.711 235.521C902.776 231.614 892.855 231.428 883.775 234.988C874.693 238.534 867.541 245.414 863.636 254.348C859.729 263.294 859.536 273.215 863.092 282.295C866.648 291.375 873.528 298.521 882.463 302.428C887.151 304.481 892.111 305.508 897.077 305.508C901.577 305.508 906.084 304.668 910.4 302.974C919.095 299.574 926.083 293.041 930.079 284.614L931.447 281.721L917.337 275.548L916.033 278.228Z" fill="white"/>
<path d="M795.16 290.695C785.355 290.695 777.404 281.228 777.404 269.548C777.404 257.868 785.355 248.402 795.16 248.402C804.967 248.402 812.916 257.868 812.916 269.548C812.916 281.228 804.967 290.695 795.16 290.695ZM813.552 232.948V239.295C808.325 235.295 801.989 232.948 795.16 232.948C777.244 232.948 762.719 249.082 762.719 268.975C762.719 288.882 777.244 305.015 795.16 305.015C801.989 305.015 808.325 302.668 813.552 298.668V306.442C813.552 310.882 810.347 323.255 795.769 323.255C781.191 323.255 777.087 310.215 777.087 310.215L763.081 316.749C763.081 316.749 768.348 337.309 797.157 337.309C812.763 337.309 820.805 328.255 824.901 319.949C827.676 314.322 829.004 308.095 829.004 301.815V232.948H813.552Z" fill="white"/>
<path d="M1001.89 193.335V306.441H986.441V193.335H1001.89Z" fill="white"/>
<path d="M1023.53 193.334V208.774C1034.34 208.774 1043.11 218.254 1043.11 229.934C1043.11 241.614 1034.34 251.08 1023.53 251.08V265.4C1043.3 265.4 1059.33 249.267 1059.33 229.361C1059.33 209.467 1043.3 193.334 1023.53 193.334Z" fill="white"/>
<path d="M997.57 208.775H1023.52V193.335H997.57V208.775Z" fill="white"/>
<path d="M997.57 265.4H1023.52V251.08H997.57V265.4Z" fill="white"/>
<path d="M1082.82 193.335V306.441H1067.37V193.335H1082.82Z" fill="white"/>
<path d="M1125.22 292.401C1122.88 293.814 1120.3 294.534 1117.52 294.534C1114.19 294.534 1111.52 293.654 1109.6 291.908C1107.64 290.148 1106.64 287.708 1106.64 284.668C1106.64 282.894 1106.99 281.294 1107.67 279.908C1108.36 278.494 1109.46 277.281 1110.92 276.308C1112.35 275.348 1114.2 274.641 1116.43 274.174C1118.59 273.721 1121.22 273.494 1124.24 273.494H1132.35V286.108L1132.08 286.414C1129.78 289.014 1127.47 291.028 1125.22 292.401ZM1133.31 296.561L1135.2 294.521V305.348H1148.22V258.668C1148.22 254.321 1147.68 250.521 1146.66 247.388C1145.66 244.321 1144.04 241.801 1141.86 239.868C1139.66 237.921 1136.79 236.454 1133.35 235.494C1129.83 234.534 1125.51 234.041 1120.52 234.041C1117.72 234.041 1114.98 234.268 1112.34 234.721C1109.7 235.174 1107.23 235.761 1105 236.468C1103.07 237.094 1101.32 237.761 1099.82 238.468L1100.64 250.708C1101.59 250.228 1102.67 249.721 1103.86 249.188C1105.75 248.334 1107.95 247.561 1110.4 246.868C1112.9 246.161 1115.76 245.801 1118.91 245.801C1121.35 245.801 1123.44 246.068 1125.12 246.588C1126.88 247.121 1128.32 247.988 1129.4 249.148C1130.47 250.294 1131.24 251.748 1131.7 253.441C1132.14 255.068 1132.35 256.974 1132.35 259.094V264.134H1124.91C1119.2 264.134 1114.14 264.574 1109.86 265.428C1105.62 266.281 1102.04 267.601 1099.22 269.348C1096.46 271.054 1094.35 273.254 1092.96 275.868C1091.56 278.494 1090.86 281.654 1090.86 285.254C1090.86 288.588 1091.42 291.534 1092.52 294.014C1093.62 296.481 1095.18 298.574 1097.15 300.228C1099.15 301.908 1101.56 303.188 1104.3 304.041C1107.08 304.908 1110.18 305.348 1113.51 305.348C1117.51 305.348 1121.2 304.561 1124.48 303.041C1127.76 301.494 1130.74 299.321 1133.31 296.561Z" fill="white"/>
<path d="M1209.56 234.162L1198.27 260.268L1191.34 276.335L1186.63 265.455L1173.1 234.162H1156.26L1178.22 284.922L1183.11 296.242L1170.36 327.375H1187.2L1198.28 299.202L1206.7 279.735L1226.4 234.162H1209.56Z" fill="white"/>
<path d="M577.179 151.215C577.179 151.589 577.149 151.922 577.092 152.202C577.033 152.496 576.94 152.735 576.811 152.949C576.68 153.149 576.529 153.296 576.356 153.402C576.183 153.496 575.995 153.549 575.793 153.549H549.567C549.048 153.549 548.513 153.349 547.965 152.962C547.417 152.576 547.143 151.855 547.143 150.815V100.269C547.143 99.2289 547.417 98.5222 547.965 98.1355C548.513 97.7355 549.048 97.5488 549.567 97.5488H575.404C575.605 97.5488 575.793 97.6024 575.967 97.6957C576.14 97.8024 576.284 97.9488 576.399 98.1488C576.515 98.3488 576.6 98.6023 576.659 98.909C576.716 99.2156 576.745 99.5623 576.745 99.9756C576.745 100.349 576.716 100.682 576.659 100.962C576.6 101.256 576.515 101.495 576.399 101.682C576.284 101.869 576.14 102.016 575.967 102.109C575.793 102.216 575.605 102.269 575.404 102.269H552.423V121.949H572.244C572.476 121.949 572.677 122.002 572.851 122.109C573.024 122.202 573.168 122.349 573.283 122.536C573.397 122.722 573.484 122.976 573.543 123.269C573.6 123.576 573.629 123.936 573.629 124.336C573.629 124.709 573.6 125.029 573.543 125.309C573.484 125.589 573.397 125.802 573.283 125.976C573.168 126.149 573.024 126.282 572.851 126.376C572.677 126.456 572.476 126.496 572.244 126.496H552.423V148.829H575.793C575.995 148.829 576.183 148.882 576.356 148.989C576.529 149.082 576.68 149.229 576.811 149.415C576.94 149.602 577.033 149.842 577.092 150.149C577.149 150.455 577.179 150.802 577.179 151.215Z" fill="white"/>
<path d="M624.395 99.9742C624.395 100.348 624.366 100.681 624.308 100.961C624.251 101.254 624.164 101.494 624.048 101.681C623.934 101.867 623.789 102.014 623.616 102.108C623.443 102.214 623.255 102.267 623.054 102.267H606.348V152.681C606.348 152.854 606.304 153.014 606.218 153.161C606.132 153.308 605.987 153.414 605.785 153.508C605.583 153.588 605.309 153.667 604.963 153.721C604.617 153.774 604.199 153.801 603.708 153.801C603.218 153.801 602.799 153.774 602.454 153.721C602.107 153.667 601.832 153.588 601.631 153.508C601.428 153.414 601.284 153.308 601.198 153.161C601.111 153.014 601.068 152.854 601.068 152.681V102.267H584.363C584.131 102.267 583.936 102.214 583.779 102.108C583.62 102.014 583.482 101.867 583.367 101.681C583.252 101.494 583.166 101.254 583.108 100.961C583.05 100.681 583.021 100.348 583.021 99.9742C583.021 99.5609 583.05 99.2142 583.108 98.9075C583.166 98.6009 583.252 98.3474 583.367 98.1474C583.482 97.9474 583.62 97.8009 583.779 97.6943C583.936 97.6009 584.131 97.5474 584.363 97.5474H623.054C623.255 97.5474 623.443 97.6009 623.616 97.6943C623.789 97.8009 623.934 97.9474 624.048 98.1474C624.164 98.3474 624.251 98.6009 624.308 98.9075C624.366 99.2142 624.395 99.5609 624.395 99.9742Z" fill="white"/>
<path d="M658.628 152.681C658.628 152.854 658.585 153.014 658.498 153.161C658.412 153.308 658.266 153.414 658.065 153.508C657.864 153.588 657.596 153.668 657.265 153.721C656.933 153.774 656.506 153.801 655.988 153.801C655.497 153.801 655.078 153.774 654.733 153.721C654.386 153.668 654.112 153.588 653.91 153.508C653.708 153.414 653.564 153.308 653.477 153.161C653.39 153.014 653.348 152.854 653.348 152.681V98.4141C653.348 98.2407 653.397 98.0808 653.5 97.9341C653.6 97.7875 653.758 97.6808 653.976 97.5875C654.192 97.5075 654.466 97.4276 654.797 97.3742C655.129 97.3209 655.526 97.2807 655.988 97.2807C656.506 97.2807 656.933 97.3209 657.265 97.3742C657.596 97.4276 657.864 97.5075 658.065 97.5875C658.266 97.6808 658.412 97.7875 658.498 97.9341C658.585 98.0808 658.628 98.2407 658.628 98.4141V152.681Z" fill="white"/>
<path d="M708.918 99.9742C708.918 100.348 708.888 100.681 708.831 100.961C708.772 101.254 708.686 101.494 708.571 101.681C708.456 101.867 708.312 102.014 708.139 102.108C707.966 102.214 707.778 102.267 707.576 102.267H690.871V152.681C690.871 152.854 690.827 153.014 690.74 153.161C690.654 153.308 690.51 153.414 690.308 153.508C690.106 153.588 689.832 153.667 689.486 153.721C689.139 153.774 688.722 153.801 688.231 153.801C687.739 153.801 687.322 153.774 686.975 153.721C686.63 153.667 686.355 153.588 686.154 153.508C685.951 153.414 685.807 153.308 685.72 153.161C685.634 153.014 685.591 152.854 685.591 152.681V102.267H668.886C668.654 102.267 668.459 102.214 668.302 102.108C668.143 102.014 668.004 101.867 667.89 101.681C667.775 101.494 667.688 101.254 667.63 100.961C667.572 100.681 667.543 100.348 667.543 99.9742C667.543 99.5609 667.572 99.2142 667.63 98.9075C667.688 98.6009 667.775 98.3474 667.89 98.1474C668.004 97.9474 668.143 97.8009 668.302 97.6943C668.459 97.6009 668.654 97.5474 668.886 97.5474H707.576C707.778 97.5474 707.966 97.6009 708.139 97.6943C708.312 97.8009 708.456 97.9474 708.571 98.1474C708.686 98.3474 708.772 98.6009 708.831 98.9075C708.888 99.2142 708.918 99.5609 708.918 99.9742Z" fill="white"/>
<path d="M777.296 125.375C777.296 122.055 776.986 118.948 776.366 116.041C775.745 113.148 774.722 110.628 773.293 108.468C771.865 106.321 769.967 104.641 767.602 103.415C765.237 102.188 762.307 101.575 758.817 101.575C755.354 101.575 752.433 102.215 750.053 103.495C747.673 104.775 745.739 106.508 744.254 108.668C742.767 110.828 741.701 113.361 741.051 116.241C740.402 119.135 740.077 122.175 740.077 125.375C740.077 128.775 740.373 131.948 740.965 134.868C741.555 137.801 742.558 140.348 743.973 142.508C745.385 144.681 747.275 146.375 749.642 147.601C752.007 148.828 754.965 149.441 758.514 149.441C762.034 149.441 764.99 148.775 767.386 147.468C769.781 146.148 771.714 144.401 773.185 142.188C774.657 139.975 775.71 137.428 776.345 134.535C776.978 131.628 777.296 128.575 777.296 125.375ZM782.922 124.895C782.922 129.375 782.41 133.415 781.386 137.041C780.362 140.655 778.826 143.748 776.777 146.295C774.729 148.855 772.146 150.815 769.03 152.201C765.914 153.588 762.279 154.281 758.125 154.281C753.97 154.281 750.399 153.628 747.413 152.308C744.426 151.001 741.974 149.121 740.055 146.695C738.137 144.255 736.723 141.268 735.814 137.748C734.906 134.228 734.451 130.268 734.451 125.855C734.451 121.468 734.955 117.481 735.966 113.908C736.975 110.335 738.511 107.281 740.575 104.748C742.637 102.228 745.219 100.268 748.322 98.8813C751.422 97.5079 755.066 96.8146 759.25 96.8146C763.318 96.8146 766.838 97.4548 769.809 98.7615C772.781 100.055 775.241 101.921 777.189 104.335C779.135 106.761 780.578 109.708 781.517 113.175C782.453 116.628 782.922 120.535 782.922 124.895Z" fill="white"/>
<path d="M836.069 151.001C836.069 151.507 835.989 151.948 835.83 152.294C835.671 152.641 835.469 152.921 835.225 153.134C834.979 153.347 834.705 153.508 834.402 153.588C834.099 153.681 833.818 153.721 833.558 153.721H832.477C831.898 153.721 831.373 153.654 830.897 153.508C830.421 153.361 829.959 153.107 829.511 152.747C829.063 152.387 828.617 151.908 828.17 151.294C827.722 150.694 827.225 149.908 826.677 148.961L806.942 113.988C805.961 112.294 804.973 110.534 803.978 108.734C802.982 106.934 802.037 105.174 801.143 103.481H801.099C801.127 105.574 801.143 107.734 801.143 109.947C801.143 112.147 801.143 114.307 801.143 116.414V152.681C801.143 152.854 801.099 153.014 801.013 153.161C800.926 153.308 800.782 153.414 800.581 153.508C800.378 153.588 800.11 153.668 799.779 153.721C799.447 153.774 799.022 153.801 798.503 153.801C798.011 153.801 797.594 153.774 797.247 153.721C796.902 153.668 796.627 153.588 796.426 153.508C796.223 153.414 796.079 153.308 795.993 153.161C795.906 153.014 795.863 152.854 795.863 152.681V100.267C795.863 99.2275 796.137 98.5208 796.685 98.1341C797.233 97.7341 797.767 97.5474 798.286 97.5474H800.45C801.143 97.5474 801.719 97.6008 802.182 97.7208C802.642 97.8275 803.062 98.0276 803.437 98.3076C803.811 98.5742 804.179 98.9608 804.541 99.4675C804.901 99.9741 805.298 100.614 805.73 101.401L820.834 128.188C821.786 129.868 822.689 131.467 823.539 133.014C824.39 134.561 825.219 136.068 826.027 137.561C826.835 139.041 827.635 140.507 828.43 141.947C829.223 143.387 830.01 144.854 830.789 146.321H830.831C830.803 143.894 830.789 141.374 830.789 138.747C830.789 136.121 830.789 133.601 830.789 131.174V98.5875C830.789 98.4142 830.831 98.2542 830.918 98.1076C831.005 97.9609 831.149 97.8408 831.351 97.7341C831.553 97.6408 831.819 97.5608 832.151 97.5208C832.483 97.4808 832.909 97.4542 833.429 97.4542C833.89 97.4542 834.294 97.4808 834.641 97.5208C834.986 97.5608 835.261 97.6408 835.462 97.7341C835.663 97.8408 835.815 97.9609 835.917 98.1076C836.018 98.2542 836.069 98.4142 836.069 98.5875V151.001Z" fill="white"/>
<path d="M483.414 125.508C483.414 140.615 495.705 152.908 510.813 152.908C525.921 152.908 538.213 140.615 538.213 125.508C538.213 125.122 538.203 124.735 538.187 124.348H512.107V129.668H532.553L532.107 131.308C529.502 140.882 520.746 147.575 510.813 147.575C498.645 147.575 488.745 137.668 488.745 125.508C488.745 113.335 498.645 103.442 510.813 103.442C515.946 103.442 520.87 105.202 524.811 108.442L528.595 104.655C523.638 100.428 517.374 98.1082 510.813 98.1082C495.705 98.1082 483.414 110.402 483.414 125.508Z" fill="white"/>
</svg>
